<svg width="1600" height="1067" viewBox="0 0 1600 1067" fill="none" xmlns="http://www.w3.org/2000/svg">
<g clip-path="url(#clip0_1_58)">
<path d="M688.5 108C689.881 108 691 106.881 691 105.5C691 104.119 689.881 103 688.5 103C687.119 103 686 104.119 686 105.5C686 106.881 687.119 108 688.5 108Z" fill="#EC4899"/>
<path d="M760.5 103C761.881 103 763 101.881 763 100.5C763 99.1193 761.881 98 760.5 98C759.119 98 758 99.1193 758 100.5C758 101.881 759.119 103 760.5 103Z" fill="#EC4899"/>
<path d="M771.5 173C772.881 173 774 171.881 774 170.5C774 169.119 772.881 168 771.5 168C770.119 168 769 169.119 769 170.5C769 171.881 770.119 173 771.5 173Z" fill="#EC4899"/>
<path d="M1467.5 108C1468.88 108 1470 106.881 1470 105.5C1470 104.119 1468.88 103 1467.5 103C1466.12 103 1465 104.119 1465 105.5C1465 106.881 1466.12 108 1467.5 108Z" fill="#EC4899"/>
<path d="M1542.5 101C1543.88 101 1545 99.8807 1545 98.5C1545 97.1193 1543.88 96 1542.5 96C1541.12 96 1540 97.1193 1540 98.5C1540 99.8807 1541.12 101 1542.5 101Z" fill="#EC4899"/>
<path d="M1412.5 137C1413.88 137 1415 135.881 1415 134.5C1415 133.119 1413.88 132 1412.5 132C1411.12 132 1410 133.119 1410 134.5C1410 135.881 1411.12 137 1412.5 137Z" fill="#EC4899"/>
<path d="M1122.5 89C1123.88 89 1125 87.8807 1125 86.5C1125 85.1193 1123.88 84 1122.5 84C1121.12 84 1120 85.1193 1120 86.5C1120 87.8807 1121.12 89 1122.5 89Z" fill="#EC4899"/>
<path d="M1550.5 173C1551.88 173 1553 171.881 1553 170.5C1553 169.119 1551.88 168 1550.5 168C1549.12 168 1548 169.119 1548 170.5C1548 171.881 1549.12 173 1550.5 173Z" fill="#EC4899"/>
<path d="M1223.5 159C1224.88 159 1226 157.881 1226 156.5C1226 155.119 1224.88 154 1223.5 154C1222.12 154 1221 155.119 1221 156.5C1221 157.881 1222.12 159 1223.5 159Z" fill="#EC4899"/>
<path d="M1279.5 110C1280.88 110 1282 108.881 1282 107.5C1282 106.119 1280.88 105 1279.5 105C1278.12 105 1277 106.119 1277 107.5C1277 108.881 1278.12 110 1279.5 110Z" fill="#EC4899"/>
<path d="M1323.5 198C1324.88 198 1326 196.881 1326 195.5C1326 194.119 1324.88 193 1323.5 193C1322.12 193 1321 194.119 1321 195.5C1321 196.881 1322.12 198 1323.5 198Z" fill="#EC4899"/>
<path d="M899.5 79C900.881 79 902 77.8807 902 76.5C902 75.1193 900.881 74 899.5 74C898.119 74 897 75.1193 897 76.5C897 77.8807 898.119 79 899.5 79Z" fill="#EC4899"/>
<path d="M971.5 74C972.881 74 974 72.8807 974 71.5C974 70.1193 972.881 69 971.5 69C970.119 69 969 70.1193 969 71.5C969 72.8807 970.119 74 971.5 74Z" fill="#EC4899"/>
<path d="M937.5 116C938.881 116 940 114.881 940 113.5C940 112.119 938.881 111 937.5 111C936.119 111 935 112.119 935 113.5C935 114.881 936.119 116 937.5 116Z" fill="#EC4899"/>
<path d="M1382.5 286C1383.88 286 1385 284.881 1385 283.5C1385 282.119 1383.88 281 1382.5 281C1381.12 281 1380 282.119 1380 283.5C1380 284.881 1381.12 286 1382.5 286Z" fill="#EC4899"/>
<path d="M1462.5 261C1463.88 261 1465 259.881 1465 258.5C1465 257.119 1463.88 256 1462.5 256C1461.12 256 1460 257.119 1460 258.5C1460 259.881 1461.12 261 1462.5 261Z" fill="#EC4899"/>
<path d="M1473.5 331C1474.88 331 1476 329.881 1476 328.5C1476 327.119 1474.88 326 1473.5 326C1472.12 326 1471 327.119 1471 328.5C1471 329.881 1472.12 331 1473.5 331Z" fill="#EC4899"/>
<path d="M1247.45 292.008C1246.07 292.034 1244.97 293.173 1244.99 294.554C1245.02 295.934 1246.16 297.033 1247.54 297.007C1248.92 296.982 1250.02 295.842 1249.99 294.462C1249.97 293.081 1248.83 291.983 1247.45 292.008Z" fill="#EC4899"/>
<path d="M1175.55 298.329C1174.17 298.354 1173.07 299.494 1173.1 300.874C1173.12 302.255 1174.26 303.354 1175.64 303.328C1177.02 303.303 1178.12 302.163 1178.1 300.783C1178.07 299.402 1176.93 298.304 1175.55 298.329Z" fill="#EC4899"/>
<path d="M1163.27 228.543C1161.89 228.568 1160.79 229.708 1160.81 231.088C1160.84 232.469 1161.98 233.567 1163.36 233.542C1164.74 233.517 1165.84 232.377 1165.81 230.996C1165.79 229.616 1164.65 228.517 1163.27 228.543Z" fill="#EC4899"/>
<path d="M468.579 306.307C467.198 306.332 466.1 307.472 466.125 308.853C466.15 310.233 467.29 311.332 468.67 311.306C470.051 311.281 471.149 310.141 471.124 308.761C471.099 307.38 469.959 306.282 468.579 306.307Z" fill="#EC4899"/>
<path d="M393.72 314.683C392.339 314.708 391.241 315.848 391.266 317.228C391.291 318.609 392.431 319.707 393.812 319.682C395.192 319.656 396.291 318.517 396.265 317.136C396.24 315.756 395.1 314.657 393.72 314.683Z" fill="#EC4899"/>
<path d="M523.037 276.302C521.657 276.328 520.558 277.467 520.583 278.848C520.609 280.228 521.748 281.327 523.129 281.302C524.509 281.276 525.608 280.137 525.583 278.756C525.557 277.376 524.418 276.277 523.037 276.302Z" fill="#EC4899"/>
<path d="M813.869 318.971C812.489 318.997 811.39 320.136 811.416 321.517C811.441 322.897 812.581 323.996 813.961 323.97C815.342 323.945 816.44 322.805 816.415 321.425C816.389 320.045 815.25 318.946 813.869 318.971Z" fill="#EC4899"/>
<path d="M384.4 242.842C383.019 242.867 381.921 244.007 381.946 245.387C381.971 246.768 383.111 247.866 384.491 247.841C385.872 247.815 386.97 246.676 386.945 245.295C386.92 243.915 385.78 242.816 384.4 242.842Z" fill="#EC4899"/>
<path d="M711.601 250.837C710.221 250.862 709.122 252.002 709.148 253.382C709.173 254.763 710.313 255.862 711.693 255.836C713.074 255.811 714.172 254.671 714.147 253.291C714.122 251.91 712.982 250.812 711.601 250.837Z" fill="#EC4899"/>
<path d="M656.51 300.857C655.13 300.882 654.031 302.022 654.057 303.402C654.082 304.783 655.222 305.881 656.602 305.856C657.983 305.83 659.081 304.691 659.056 303.31C659.03 301.93 657.891 300.831 656.51 300.857Z" fill="#EC4899"/>
<path d="M610.902 213.679C609.522 213.704 608.423 214.844 608.449 216.225C608.474 217.605 609.614 218.704 610.994 218.678C612.375 218.653 613.473 217.513 613.448 216.133C613.423 214.752 612.283 213.654 610.902 213.679Z" fill="#EC4899"/>
<path d="M1037.02 324.876C1035.63 324.902 1034.54 326.041 1034.56 327.422C1034.59 328.802 1035.73 329.901 1037.11 329.876C1038.49 329.85 1039.59 328.711 1039.56 327.33C1039.54 325.95 1038.4 324.851 1037.02 324.876Z" fill="#EC4899"/>
<path d="M965.119 331.197C963.739 331.222 962.64 332.362 962.666 333.743C962.691 335.123 963.831 336.222 965.211 336.196C966.591 336.171 967.69 335.031 967.665 333.651C967.639 332.27 966.5 331.172 965.119 331.197Z" fill="#EC4899"/>
<path d="M998.342 288.58C996.962 288.605 995.863 289.745 995.889 291.126C995.914 292.506 997.054 293.605 998.434 293.579C999.815 293.554 1000.91 292.414 1000.89 291.034C1000.86 289.653 999.723 288.555 998.342 288.58Z" fill="#EC4899"/>
<path d="M550.297 126.777C548.917 126.802 547.818 127.942 547.843 129.322C547.869 130.703 549.008 131.801 550.389 131.776C551.769 131.751 552.868 130.611 552.843 129.231C552.817 127.85 551.678 126.752 550.297 126.777Z" fill="#EC4899"/>
<path d="M470.769 153.241C469.389 153.266 468.29 154.406 468.316 155.787C468.341 157.167 469.481 158.266 470.861 158.24C472.242 158.215 473.34 157.075 473.315 155.695C473.29 154.314 472.15 153.216 470.769 153.241Z" fill="#EC4899"/>
<path d="M458.486 83.4548C457.106 83.4802 456.007 84.6198 456.033 86.0003C456.058 87.3808 457.198 88.4793 458.578 88.454C459.959 88.4286 461.057 87.289 461.032 85.9085C461.007 84.528 459.867 83.4295 458.486 83.4548Z" fill="#EC4899"/>
<path d="M1045.45 260.008C1044.07 260.034 1042.97 261.173 1042.99 262.554C1043.02 263.934 1044.16 265.033 1045.54 265.007C1046.92 264.982 1048.02 263.842 1047.99 262.462C1047.97 261.081 1046.83 259.983 1045.45 260.008Z" fill="#EC4899"/>
<path d="M973.551 266.329C972.171 266.354 971.072 267.494 971.098 268.874C971.123 270.255 972.263 271.354 973.643 271.328C975.024 271.303 976.122 270.163 976.097 268.783C976.071 267.402 974.932 266.304 973.551 266.329Z" fill="#EC4899"/>
<path d="M961.268 196.543C959.888 196.568 958.789 197.708 958.815 199.088C958.84 200.469 959.98 201.567 961.36 201.542C962.741 201.517 963.839 200.377 963.814 198.996C963.788 197.616 962.649 196.517 961.268 196.543Z" fill="#EC4899"/>
<path d="M266.579 274.307C265.198 274.332 264.1 275.472 264.125 276.853C264.15 278.233 265.29 279.332 266.67 279.306C268.051 279.281 269.149 278.141 269.124 276.761C269.099 275.38 267.959 274.282 266.579 274.307Z" fill="#EC4899"/>
<path d="M191.72 282.683C190.339 282.708 189.241 283.848 189.266 285.228C189.291 286.609 190.431 287.707 191.811 287.682C193.192 287.656 194.29 286.517 194.265 285.136C194.24 283.756 193.1 282.657 191.72 282.683Z" fill="#EC4899"/>
<path d="M321.037 244.302C319.657 244.328 318.558 245.467 318.583 246.848C318.609 248.228 319.748 249.327 321.129 249.302C322.509 249.276 323.608 248.137 323.583 246.756C323.557 245.376 322.418 244.277 321.037 244.302Z" fill="#EC4899"/>
<path d="M611.869 286.971C610.489 286.997 609.39 288.136 609.416 289.517C609.441 290.897 610.581 291.996 611.961 291.97C613.342 291.945 614.44 290.805 614.415 289.425C614.389 288.045 613.25 286.946 611.869 286.971Z" fill="#EC4899"/>
<path d="M182.4 210.842C181.019 210.867 179.921 212.007 179.946 213.387C179.971 214.768 181.111 215.866 182.491 215.841C183.872 215.815 184.97 214.676 184.945 213.295C184.92 211.915 183.78 210.816 182.4 210.842Z" fill="#EC4899"/>
<path d="M509.601 218.837C508.221 218.862 507.122 220.002 507.148 221.382C507.173 222.763 508.313 223.862 509.693 223.836C511.074 223.811 512.172 222.671 512.147 221.291C512.122 219.91 510.982 218.812 509.601 218.837Z" fill="#EC4899"/>
<path d="M454.51 268.857C453.13 268.882 452.031 270.022 452.057 271.402C452.082 272.783 453.222 273.881 454.602 273.856C455.983 273.83 457.081 272.691 457.056 271.31C457.03 269.93 455.891 268.831 454.51 268.857Z" fill="#EC4899"/>
<path d="M408.902 181.679C407.522 181.704 406.423 182.844 406.449 184.225C406.474 185.605 407.614 186.704 408.994 186.678C410.375 186.653 411.473 185.513 411.448 184.133C411.423 182.752 410.283 181.654 408.902 181.679Z" fill="#EC4899"/>
<path d="M835.015 292.876C833.635 292.902 832.536 294.041 832.562 295.422C832.587 296.802 833.727 297.901 835.107 297.876C836.487 297.85 837.586 296.711 837.561 295.33C837.535 293.95 836.396 292.851 835.015 292.876Z" fill="#EC4899"/>
<path d="M763.119 299.197C761.739 299.222 760.64 300.362 760.666 301.743C760.691 303.123 761.831 304.222 763.211 304.196C764.591 304.171 765.69 303.031 765.665 301.651C765.639 300.27 764.5 299.172 763.119 299.197Z" fill="#EC4899"/>
<path d="M796.342 256.58C794.962 256.605 793.863 257.745 793.889 259.126C793.914 260.506 795.054 261.605 796.434 261.579C797.815 261.554 798.913 260.414 798.888 259.034C798.863 257.653 797.723 256.555 796.342 256.58Z" fill="#EC4899"/>
<path d="M348.297 94.7769C346.917 94.8022 345.818 95.9419 345.843 97.3224C345.869 98.7028 347.008 99.8014 348.389 99.7761C349.769 99.7507 350.868 98.6111 350.843 97.2306C350.817 95.8501 349.678 94.7516 348.297 94.7769Z" fill="#EC4899"/>
<path d="M268.769 121.241C267.389 121.266 266.29 122.406 266.316 123.787C266.341 125.167 267.481 126.266 268.861 126.24C270.242 126.215 271.34 125.075 271.315 123.695C271.29 122.314 270.15 121.216 268.769 121.241Z" fill="#EC4899"/>
<path d="M256.486 51.4548C255.106 51.4802 254.007 52.6198 254.033 54.0003C254.058 55.3808 255.198 56.4793 256.578 56.454C257.959 56.4287 259.057 55.289 259.032 53.9085C259.007 52.5281 257.867 51.4295 256.486 51.4548Z" fill="#EC4899"/>
<path d="M807.448 204.008C806.067 204.034 804.969 205.173 804.994 206.554C805.019 207.934 806.159 209.033 807.539 209.007C808.92 208.982 810.019 207.843 809.993 206.462C809.968 205.082 808.828 203.983 807.448 204.008Z" fill="#EC4899"/>
<path d="M735.552 210.329C734.171 210.354 733.073 211.494 733.098 212.875C733.123 214.255 734.263 215.354 735.643 215.328C737.024 215.303 738.122 214.163 738.097 212.783C738.072 211.402 736.932 210.304 735.552 210.329Z" fill="#EC4899"/>
<path d="M723.269 140.543C721.888 140.568 720.789 141.708 720.815 143.088C720.84 144.469 721.98 145.567 723.36 145.542C724.741 145.517 725.839 144.377 725.814 142.996C725.789 141.616 724.649 140.517 723.269 140.543Z" fill="#EC4899"/>
<path d="M28.5788 218.307C27.1983 218.333 26.0998 219.472 26.1251 220.853C26.1505 222.233 27.2901 223.332 28.6706 223.306C30.0511 223.281 31.1496 222.141 31.1243 220.761C31.0989 219.38 29.9593 218.282 28.5788 218.307Z" fill="#EC4899"/>
<path d="M83.0373 188.303C81.6568 188.328 80.5583 189.468 80.5836 190.848C80.609 192.228 81.7486 193.327 83.1291 193.302C84.5096 193.276 85.6081 192.137 85.5828 190.756C85.5574 189.376 84.4178 188.277 83.0373 188.303Z" fill="#EC4899"/>
<path d="M373.87 230.971C372.489 230.997 371.391 232.136 371.416 233.517C371.441 234.897 372.581 235.996 373.961 235.971C375.342 235.945 376.44 234.806 376.415 233.425C376.39 232.045 375.25 230.946 373.87 230.971Z" fill="#EC4899"/>
<path d="M271.602 162.837C270.221 162.862 269.123 164.002 269.148 165.383C269.173 166.763 270.313 167.862 271.693 167.836C273.074 167.811 274.172 166.671 274.147 165.291C274.122 163.91 272.982 162.812 271.602 162.837Z" fill="#EC4899"/>
<path d="M216.511 212.857C215.13 212.882 214.032 214.022 214.057 215.402C214.082 216.783 215.222 217.881 216.602 217.856C217.983 217.831 219.081 216.691 219.056 215.31C219.031 213.93 217.891 212.831 216.511 212.857Z" fill="#EC4899"/>
<path d="M170.903 125.679C169.522 125.705 168.424 126.844 168.449 128.225C168.474 129.605 169.614 130.704 170.994 130.678C172.375 130.653 173.473 129.513 173.448 128.133C173.423 126.752 172.283 125.654 170.903 125.679Z" fill="#EC4899"/>
<path d="M597.015 236.876C595.635 236.902 594.536 238.041 594.562 239.422C594.587 240.802 595.727 241.901 597.107 241.876C598.488 241.85 599.586 240.711 599.561 239.33C599.536 237.95 598.396 236.851 597.015 236.876Z" fill="#EC4899"/>
<path d="M525.119 243.197C523.739 243.223 522.64 244.362 522.666 245.743C522.691 247.123 523.831 248.222 525.211 248.196C526.592 248.171 527.69 247.031 527.665 245.651C527.64 244.27 526.5 243.172 525.119 243.197Z" fill="#EC4899"/>
<path d="M558.343 200.58C556.962 200.606 555.864 201.745 555.889 203.126C555.914 204.506 557.054 205.605 558.435 205.579C559.815 205.554 560.914 204.414 560.888 203.034C560.863 201.653 559.723 200.555 558.343 200.58Z" fill="#EC4899"/>
<path d="M110.297 38.777C108.917 38.8023 107.818 39.9419 107.844 41.3224C107.869 42.7029 109.009 43.8015 110.389 43.7761C111.77 43.7508 112.868 42.6111 112.843 41.2306C112.817 39.8502 111.678 38.7516 110.297 38.777Z" fill="#EC4899"/>
<path d="M30.7697 65.2412C29.3892 65.2665 28.2907 66.4062 28.316 67.7867C28.3414 69.1671 29.481 70.2657 30.8615 70.2403C32.242 70.215 33.3405 69.0754 33.3152 67.6949C33.2899 66.3144 32.1502 65.2158 30.7697 65.2412Z" fill="#EC4899"/>
<path d="M18.4868 -4.5451C17.1063 -4.51975 16.0077 -3.38011 16.0331 -1.99963C16.0584 -0.61915 17.1981 0.479405 18.5785 0.454061C19.959 0.428718 21.0576 -0.710927 21.0322 -2.09141C21.0069 -3.47189 19.8672 -4.57044 18.4868 -4.5451Z" fill="#EC4899"/>
<path d="M1369.45 85.0083C1368.07 85.0337 1366.97 86.1733 1366.99 87.5538C1367.02 88.9343 1368.16 90.0328 1369.54 90.0075C1370.92 89.9822 1372.02 88.8425 1371.99 87.462C1371.97 86.0816 1370.83 84.983 1369.45 85.0083Z" fill="#EC4899"/>
<path d="M1297.55 91.3291C1296.17 91.3544 1295.07 92.4941 1295.1 93.8745C1295.12 95.255 1296.26 96.3536 1297.64 96.3282C1299.02 96.3029 1300.12 95.1632 1300.1 93.7828C1300.07 92.4023 1298.93 91.3037 1297.55 91.3291Z" fill="#EC4899"/>
<path d="M1285.27 21.5428C1283.89 21.5681 1282.79 22.7078 1282.81 24.0883C1282.84 25.4687 1283.98 26.5673 1285.36 26.542C1286.74 26.5166 1287.84 25.377 1287.81 23.9965C1287.79 22.616 1286.65 21.5175 1285.27 21.5428Z" fill="#EC4899"/>
<path d="M590.579 99.3072C589.198 99.3325 588.1 100.472 588.125 101.853C588.15 103.233 589.29 104.332 590.67 104.306C592.051 104.281 593.149 103.141 593.124 101.761C593.099 100.38 591.959 99.2818 590.579 99.3072Z" fill="#EC4899"/>
<path d="M515.72 107.683C514.339 107.708 513.241 108.848 513.266 110.228C513.291 111.609 514.431 112.707 515.812 112.682C517.192 112.656 518.291 111.517 518.265 110.136C518.24 108.756 517.1 107.657 515.72 107.683Z" fill="#EC4899"/>
<path d="M645.037 69.3025C643.657 69.3279 642.558 70.4675 642.583 71.848C642.609 73.2285 643.748 74.327 645.129 74.3017C646.509 74.2763 647.608 73.1367 647.583 71.7562C647.557 70.3757 646.418 69.2772 645.037 69.3025Z" fill="#EC4899"/>
<path d="M935.869 111.971C934.489 111.997 933.39 113.136 933.416 114.517C933.441 115.897 934.581 116.996 935.961 116.971C937.342 116.945 938.44 115.806 938.415 114.425C938.389 113.045 937.25 111.946 935.869 111.971Z" fill="#EC4899"/>
<path d="M506.4 35.8416C505.019 35.867 503.921 37.0066 503.946 38.3871C503.971 39.7676 505.111 40.8661 506.491 40.8408C507.872 40.8154 508.97 39.6758 508.945 38.2953C508.92 36.9148 507.78 35.8163 506.4 35.8416Z" fill="#EC4899"/>
<path d="M833.601 43.8371C832.221 43.8624 831.122 45.0021 831.148 46.3825C831.173 47.763 832.313 48.8616 833.693 48.8362C835.074 48.8109 836.172 47.6712 836.147 46.2908C836.122 44.9103 834.982 43.8117 833.601 43.8371Z" fill="#EC4899"/>
<path d="M778.51 93.8567C777.13 93.8821 776.031 95.0217 776.057 96.4022C776.082 97.7827 777.222 98.8812 778.602 98.8559C779.983 98.8305 781.081 97.6909 781.056 96.3104C781.03 94.9299 779.891 93.8314 778.51 93.8567Z" fill="#EC4899"/>
<path d="M732.902 6.67918C731.522 6.70452 730.423 7.84417 730.449 9.22464C730.474 10.6051 731.614 11.7037 732.994 11.6783C734.375 11.653 735.473 10.5133 735.448 9.13287C735.423 7.75239 734.283 6.65383 732.902 6.67918Z" fill="#EC4899"/>
<path d="M1159.02 117.876C1157.63 117.902 1156.54 119.041 1156.56 120.422C1156.59 121.802 1157.73 122.901 1159.11 122.876C1160.49 122.85 1161.59 121.711 1161.56 120.33C1161.54 118.95 1160.4 117.851 1159.02 117.876Z" fill="#EC4899"/>
<path d="M1087.12 124.197C1085.74 124.223 1084.64 125.362 1084.67 126.743C1084.69 128.123 1085.83 129.222 1087.21 129.196C1088.59 129.171 1089.69 128.031 1089.66 126.651C1089.64 125.27 1088.5 124.172 1087.12 124.197Z" fill="#EC4899"/>
<path d="M1120.34 81.5802C1118.96 81.6055 1117.86 82.7452 1117.89 84.1256C1117.91 85.5061 1119.05 86.6047 1120.43 86.5793C1121.81 86.554 1122.91 85.4143 1122.89 84.0339C1122.86 82.6534 1121.72 81.5548 1120.34 81.5802Z" fill="#EC4899"/>
<path d="M1090.58 33.3071C1089.2 33.3325 1088.1 34.4721 1088.12 35.8526C1088.15 37.2331 1089.29 38.3316 1090.67 38.3063C1092.05 38.281 1093.15 37.1413 1093.12 35.7608C1093.1 34.3803 1091.96 33.2818 1090.58 33.3071Z" fill="#EC4899"/>
<path d="M1015.72 41.6826C1014.34 41.7079 1013.24 42.8476 1013.27 44.2281C1013.29 45.6085 1014.43 46.7071 1015.81 46.6818C1017.19 46.6564 1018.29 45.5168 1018.27 44.1363C1018.24 42.7558 1017.1 41.6573 1015.72 41.6826Z" fill="#EC4899"/>
<path d="M1145.04 3.30247C1143.66 3.32781 1142.56 4.46746 1142.58 5.84794C1142.61 7.22841 1143.75 8.32697 1145.13 8.30163C1146.51 8.27628 1147.61 7.13664 1147.58 5.75616C1147.56 4.37568 1146.42 3.27712 1145.04 3.30247Z" fill="#EC4899"/>
<path d="M1435.87 45.9713C1434.49 45.9967 1433.39 47.1363 1433.42 48.5168C1433.44 49.8973 1434.58 50.9958 1435.96 50.9705C1437.34 50.9451 1438.44 49.8055 1438.41 48.425C1438.39 47.0445 1437.25 45.946 1435.87 45.9713Z" fill="#EC4899"/>
<path d="M1278.51 27.8566C1277.13 27.882 1276.03 29.0216 1276.06 30.4021C1276.08 31.7826 1277.22 32.8811 1278.6 32.8558C1279.98 32.8305 1281.08 31.6908 1281.06 30.3103C1281.03 28.9298 1279.89 27.8313 1278.51 27.8566Z" fill="#EC4899"/>
<path d="M1587.12 58.1971C1585.74 58.2225 1584.64 59.3621 1584.67 60.7426C1584.69 62.1231 1585.83 63.2216 1587.21 63.1963C1588.59 63.1709 1589.69 62.0313 1589.66 60.6508C1589.64 59.2703 1588.5 58.1718 1587.12 58.1971Z" fill="#EC4899"/>
<path d="M1448.58 362.307C1447.2 362.333 1446.1 363.472 1446.13 364.853C1446.15 366.233 1447.29 367.332 1448.67 367.306C1450.05 367.281 1451.15 366.141 1451.12 364.761C1451.1 363.38 1449.96 362.282 1448.58 362.307Z" fill="#EC4899"/>
<path d="M1373.72 370.683C1372.34 370.708 1371.24 371.848 1371.27 373.228C1371.29 374.609 1372.43 375.707 1373.81 375.682C1375.19 375.656 1376.29 374.517 1376.27 373.136C1376.24 371.756 1375.1 370.657 1373.72 370.683Z" fill="#EC4899"/>
<path d="M1503.04 332.303C1501.66 332.328 1500.56 333.468 1500.58 334.848C1500.61 336.228 1501.75 337.327 1503.13 337.302C1504.51 337.276 1505.61 336.137 1505.58 334.756C1505.56 333.376 1504.42 332.277 1503.04 332.303Z" fill="#EC4899"/>
<path d="M1364.4 298.842C1363.02 298.867 1361.92 300.007 1361.95 301.387C1361.97 302.768 1363.11 303.866 1364.49 303.841C1365.87 303.815 1366.97 302.676 1366.95 301.295C1366.92 299.915 1365.78 298.816 1364.4 298.842Z" fill="#EC4899"/>
<path d="M1590.9 269.679C1589.52 269.705 1588.42 270.844 1588.45 272.225C1588.47 273.605 1589.61 274.704 1590.99 274.678C1592.37 274.653 1593.47 273.513 1593.45 272.133C1593.42 270.752 1592.28 269.654 1590.9 269.679Z" fill="#EC4899"/>
<path d="M1530.3 182.777C1528.92 182.802 1527.82 183.942 1527.84 185.322C1527.87 186.703 1529.01 187.801 1530.39 187.776C1531.77 187.751 1532.87 186.611 1532.84 185.231C1532.82 183.85 1531.68 182.752 1530.3 182.777Z" fill="#EC4899"/>
<path d="M1450.77 209.241C1449.39 209.267 1448.29 210.406 1448.32 211.787C1448.34 213.167 1449.48 214.266 1450.86 214.24C1452.24 214.215 1453.34 213.075 1453.32 211.695C1453.29 210.314 1452.15 209.216 1450.77 209.241Z" fill="#EC4899"/>
<path d="M1438.49 139.455C1437.11 139.48 1436.01 140.62 1436.03 142C1436.06 143.381 1437.2 144.479 1438.58 144.454C1439.96 144.429 1441.06 143.289 1441.03 141.909C1441.01 140.528 1439.87 139.43 1438.49 139.455Z" fill="#EC4899"/>
<path d="M760.5 643C761.881 643 763 641.881 763 640.5C763 639.119 761.881 638 760.5 638C759.119 638 758 639.119 758 640.5C758 641.881 759.119 643 760.5 643Z" fill="#2563EB"/>
<path d="M832.5 638C833.881 638 835 636.881 835 635.5C835 634.119 833.881 633 832.5 633C831.119 633 830 634.119 830 635.5C830 636.881 831.119 638 832.5 638Z" fill="#2563EB"/>
<path d="M843.5 708C844.881 708 846 706.881 846 705.5C846 704.119 844.881 703 843.5 703C842.119 703 841 704.119 841 705.5C841 706.881 842.119 708 843.5 708Z" fill="#2563EB"/>
<path d="M1539.5 643C1540.88 643 1542 641.881 1542 640.5C1542 639.119 1540.88 638 1539.5 638C1538.12 638 1537 639.119 1537 640.5C1537 641.881 1538.12 643 1539.5 643Z" fill="#2563EB"/>
<path d="M1484.5 672C1485.88 672 1487 670.881 1487 669.5C1487 668.119 1485.88 667 1484.5 667C1483.12 667 1482 668.119 1482 669.5C1482 670.881 1483.12 672 1484.5 672Z" fill="#2563EB"/>
<path d="M1194.5 624C1195.88 624 1197 622.881 1197 621.5C1197 620.119 1195.88 619 1194.5 619C1193.12 619 1192 620.119 1192 621.5C1192 622.881 1193.12 624 1194.5 624Z" fill="#2563EB"/>
<path d="M1295.5 694C1296.88 694 1298 692.881 1298 691.5C1298 690.119 1296.88 689 1295.5 689C1294.12 689 1293 690.119 1293 691.5C1293 692.881 1294.12 694 1295.5 694Z" fill="#2563EB"/>
<path d="M1351.5 645C1352.88 645 1354 643.881 1354 642.5C1354 641.119 1352.88 640 1351.5 640C1350.12 640 1349 641.119 1349 642.5C1349 643.881 1350.12 645 1351.5 645Z" fill="#2563EB"/>
<path d="M1395.5 733C1396.88 733 1398 731.881 1398 730.5C1398 729.119 1396.88 728 1395.5 728C1394.12 728 1393 729.119 1393 730.5C1393 731.881 1394.12 733 1395.5 733Z" fill="#2563EB"/>
<path d="M971.5 614C972.881 614 974 612.881 974 611.5C974 610.119 972.881 609 971.5 609C970.119 609 969 610.119 969 611.5C969 612.881 970.119 614 971.5 614Z" fill="#2563EB"/>
<path d="M1043.5 609C1044.88 609 1046 607.881 1046 606.5C1046 605.119 1044.88 604 1043.5 604C1042.12 604 1041 605.119 1041 606.5C1041 607.881 1042.12 609 1043.5 609Z" fill="#2563EB"/>
<path d="M1009.5 651C1010.88 651 1012 649.881 1012 648.5C1012 647.119 1010.88 646 1009.5 646C1008.12 646 1007 647.119 1007 648.5C1007 649.881 1008.12 651 1009.5 651Z" fill="#2563EB"/>
<path d="M1454.5 821C1455.88 821 1457 819.881 1457 818.5C1457 817.119 1455.88 816 1454.5 816C1453.12 816 1452 817.119 1452 818.5C1452 819.881 1453.12 821 1454.5 821Z" fill="#2563EB"/>
<path d="M1534.5 796C1535.88 796 1537 794.881 1537 793.5C1537 792.119 1535.88 791 1534.5 791C1533.12 791 1532 792.119 1532 793.5C1532 794.881 1533.12 796 1534.5 796Z" fill="#2563EB"/>
<path d="M1545.5 866C1546.88 866 1548 864.881 1548 863.5C1548 862.119 1546.88 861 1545.5 861C1544.12 861 1543 862.119 1543 863.5C1543 864.881 1544.12 866 1545.5 866Z" fill="#2563EB"/>
<path d="M1319.45 827.008C1318.07 827.034 1316.97 828.173 1316.99 829.554C1317.02 830.934 1318.16 832.033 1319.54 832.007C1320.92 831.982 1322.02 830.842 1321.99 829.462C1321.97 828.081 1320.83 826.983 1319.45 827.008Z" fill="#2563EB"/>
<path d="M1247.55 833.329C1246.17 833.354 1245.07 834.494 1245.1 835.874C1245.12 837.255 1246.26 838.353 1247.64 838.328C1249.02 838.303 1250.12 837.163 1250.1 835.783C1250.07 834.402 1248.93 833.304 1247.55 833.329Z" fill="#2563EB"/>
<path d="M1235.27 763.543C1233.89 763.568 1232.79 764.708 1232.81 766.088C1232.84 767.469 1233.98 768.567 1235.36 768.542C1236.74 768.517 1237.84 767.377 1237.81 765.996C1237.79 764.616 1236.65 763.517 1235.27 763.543Z" fill="#2563EB"/>
<path d="M540.579 841.307C539.198 841.332 538.1 842.472 538.125 843.853C538.15 845.233 539.29 846.332 540.67 846.306C542.051 846.281 543.149 845.141 543.124 843.761C543.099 842.38 541.959 841.282 540.579 841.307Z" fill="#2563EB"/>
<path d="M465.72 849.683C464.339 849.708 463.241 850.848 463.266 852.228C463.291 853.609 464.431 854.707 465.812 854.682C467.192 854.656 468.291 853.517 468.265 852.136C468.24 850.756 467.1 849.657 465.72 849.683Z" fill="#2563EB"/>
<path d="M595.037 811.302C593.657 811.328 592.558 812.467 592.583 813.848C592.609 815.228 593.748 816.327 595.129 816.302C596.509 816.276 597.608 815.137 597.583 813.756C597.557 812.376 596.418 811.277 595.037 811.302Z" fill="#2563EB"/>
<path d="M885.869 853.971C884.489 853.997 883.39 855.136 883.416 856.517C883.441 857.897 884.581 858.996 885.961 858.97C887.342 858.945 888.44 857.805 888.415 856.425C888.389 855.045 887.25 853.946 885.869 853.971Z" fill="#2563EB"/>
<path d="M456.4 777.842C455.019 777.867 453.921 779.007 453.946 780.387C453.971 781.767 455.111 782.866 456.491 782.841C457.872 782.815 458.97 781.676 458.945 780.295C458.92 778.915 457.78 777.816 456.4 777.842Z" fill="#2563EB"/>
<path d="M783.601 785.837C782.221 785.862 781.122 787.002 781.148 788.382C781.173 789.763 782.313 790.862 783.693 790.836C785.074 790.811 786.172 789.671 786.147 788.291C786.122 786.91 784.982 785.812 783.601 785.837Z" fill="#2563EB"/>
<path d="M728.51 835.857C727.13 835.882 726.031 837.022 726.057 838.402C726.082 839.783 727.222 840.881 728.602 840.856C729.983 840.83 731.081 839.691 731.056 838.31C731.03 836.93 729.891 835.831 728.51 835.857Z" fill="#2563EB"/>
<path d="M682.902 748.679C681.522 748.704 680.423 749.844 680.449 751.225C680.474 752.605 681.614 753.704 682.994 753.678C684.375 753.653 685.473 752.513 685.448 751.133C685.423 749.752 684.283 748.654 682.902 748.679Z" fill="#2563EB"/>
<path d="M1109.02 859.876C1107.63 859.902 1106.54 861.041 1106.56 862.422C1106.59 863.802 1107.73 864.901 1109.11 864.875C1110.49 864.85 1111.59 863.71 1111.56 862.33C1111.54 860.95 1110.4 859.851 1109.02 859.876Z" fill="#2563EB"/>
<path d="M1037.12 866.197C1035.74 866.222 1034.64 867.362 1034.67 868.743C1034.69 870.123 1035.83 871.222 1037.21 871.196C1038.59 871.171 1039.69 870.031 1039.66 868.651C1039.64 867.27 1038.5 866.172 1037.12 866.197Z" fill="#2563EB"/>
<path d="M1070.34 823.58C1068.96 823.605 1067.86 824.745 1067.89 826.126C1067.91 827.506 1069.05 828.605 1070.43 828.579C1071.81 828.554 1072.91 827.414 1072.89 826.034C1072.86 824.653 1071.72 823.555 1070.34 823.58Z" fill="#2563EB"/>
<path d="M622.297 661.777C620.917 661.802 619.818 662.942 619.843 664.322C619.869 665.703 621.008 666.801 622.389 666.776C623.769 666.751 624.868 665.611 624.843 664.231C624.817 662.85 623.678 661.752 622.297 661.777Z" fill="#2563EB"/>
<path d="M542.769 688.241C541.389 688.266 540.29 689.406 540.316 690.787C540.341 692.167 541.481 693.266 542.861 693.24C544.242 693.215 545.34 692.075 545.315 690.695C545.29 689.314 544.15 688.216 542.769 688.241Z" fill="#2563EB"/>
<path d="M530.486 618.455C529.106 618.48 528.007 619.62 528.033 621C528.058 622.381 529.198 623.479 530.578 623.454C531.959 623.429 533.057 622.289 533.032 620.909C533.007 619.528 531.867 618.429 530.486 618.455Z" fill="#2563EB"/>
<path d="M1117.45 795.008C1116.07 795.034 1114.97 796.173 1114.99 797.554C1115.02 798.934 1116.16 800.033 1117.54 800.007C1118.92 799.982 1120.02 798.842 1119.99 797.462C1119.97 796.081 1118.83 794.983 1117.45 795.008Z" fill="#2563EB"/>
<path d="M1045.55 801.329C1044.17 801.354 1043.07 802.494 1043.1 803.874C1043.12 805.255 1044.26 806.353 1045.64 806.328C1047.02 806.303 1048.12 805.163 1048.1 803.783C1048.07 802.402 1046.93 801.304 1045.55 801.329Z" fill="#2563EB"/>
<path d="M1033.27 731.543C1031.89 731.568 1030.79 732.708 1030.81 734.088C1030.84 735.469 1031.98 736.567 1033.36 736.542C1034.74 736.517 1035.84 735.377 1035.81 733.996C1035.79 732.616 1034.65 731.517 1033.27 731.543Z" fill="#2563EB"/>
<path d="M338.579 809.307C337.198 809.332 336.1 810.472 336.125 811.853C336.15 813.233 337.29 814.332 338.67 814.306C340.051 814.281 341.149 813.141 341.124 811.761C341.099 810.38 339.959 809.282 338.579 809.307Z" fill="#2563EB"/>
<path d="M263.72 817.683C262.339 817.708 261.241 818.848 261.266 820.228C261.291 821.609 262.431 822.707 263.812 822.682C265.192 822.656 266.291 821.517 266.265 820.136C266.24 818.756 265.1 817.657 263.72 817.683Z" fill="#2563EB"/>
<path d="M393.037 779.302C391.657 779.328 390.558 780.467 390.583 781.848C390.609 783.228 391.748 784.327 393.129 784.302C394.509 784.276 395.608 783.137 395.583 781.756C395.557 780.376 394.418 779.277 393.037 779.302Z" fill="#2563EB"/>
<path d="M683.869 821.971C682.489 821.997 681.39 823.136 681.416 824.517C681.441 825.897 682.581 826.996 683.961 826.97C685.342 826.945 686.44 825.805 686.415 824.425C686.389 823.045 685.25 821.946 683.869 821.971Z" fill="#2563EB"/>
<path d="M254.4 745.842C253.019 745.867 251.921 747.007 251.946 748.387C251.971 749.767 253.111 750.866 254.491 750.841C255.872 750.815 256.97 749.676 256.945 748.295C256.92 746.915 255.78 745.816 254.4 745.842Z" fill="#2563EB"/>
<path d="M581.601 753.837C580.221 753.862 579.122 755.002 579.148 756.382C579.173 757.763 580.313 758.862 581.693 758.836C583.074 758.811 584.172 757.671 584.147 756.291C584.122 754.91 582.982 753.812 581.601 753.837Z" fill="#2563EB"/>
<path d="M526.51 803.857C525.13 803.882 524.031 805.022 524.057 806.402C524.082 807.783 525.222 808.881 526.602 808.856C527.983 808.83 529.081 807.691 529.056 806.31C529.03 804.93 527.891 803.831 526.51 803.857Z" fill="#2563EB"/>
<path d="M480.902 716.679C479.522 716.704 478.423 717.844 478.449 719.225C478.474 720.605 479.614 721.704 480.994 721.678C482.375 721.653 483.473 720.513 483.448 719.133C483.423 717.752 482.283 716.654 480.902 716.679Z" fill="#2563EB"/>
<path d="M907.015 827.876C905.635 827.902 904.536 829.041 904.562 830.422C904.587 831.802 905.727 832.901 907.107 832.875C908.487 832.85 909.586 831.71 909.561 830.33C909.535 828.95 908.396 827.851 907.015 827.876Z" fill="#2563EB"/>
<path d="M835.119 834.197C833.739 834.222 832.64 835.362 832.666 836.743C832.691 838.123 833.831 839.222 835.211 839.196C836.591 839.171 837.69 838.031 837.665 836.651C837.639 835.27 836.5 834.172 835.119 834.197Z" fill="#2563EB"/>
<path d="M868.342 791.58C866.962 791.605 865.863 792.745 865.889 794.126C865.914 795.506 867.054 796.605 868.434 796.579C869.815 796.554 870.913 795.414 870.888 794.034C870.863 792.653 869.723 791.555 868.342 791.58Z" fill="#2563EB"/>
<path d="M420.297 629.777C418.917 629.802 417.818 630.942 417.843 632.322C417.869 633.703 419.008 634.801 420.389 634.776C421.769 634.751 422.868 633.611 422.843 632.231C422.817 630.85 421.678 629.752 420.297 629.777Z" fill="#2563EB"/>
<path d="M340.769 656.241C339.389 656.266 338.29 657.406 338.316 658.787C338.341 660.167 339.481 661.266 340.861 661.24C342.242 661.215 343.34 660.075 343.315 658.695C343.29 657.314 342.15 656.216 340.769 656.241Z" fill="#2563EB"/>
<path d="M328.486 586.455C327.106 586.48 326.007 587.62 326.033 589C326.058 590.381 327.198 591.479 328.578 591.454C329.959 591.429 331.057 590.289 331.032 588.909C331.007 587.528 329.867 586.429 328.486 586.455Z" fill="#2563EB"/>
<path d="M879.448 739.008C878.067 739.034 876.969 740.173 876.994 741.554C877.019 742.934 878.159 744.033 879.539 744.007C880.92 743.982 882.019 742.842 881.993 741.462C881.968 740.081 880.828 738.983 879.448 739.008Z" fill="#2563EB"/>
<path d="M807.552 745.329C806.171 745.354 805.073 746.494 805.098 747.874C805.123 749.255 806.263 750.353 807.643 750.328C809.024 750.303 810.122 749.163 810.097 747.783C810.072 746.402 808.932 745.304 807.552 745.329Z" fill="#2563EB"/>
<path d="M795.269 675.543C793.888 675.568 792.789 676.708 792.815 678.088C792.84 679.469 793.98 680.567 795.36 680.542C796.741 680.517 797.839 679.377 797.814 677.996C797.789 676.616 796.649 675.517 795.269 675.543Z" fill="#2563EB"/>
<path d="M100.579 753.307C99.1983 753.332 98.0998 754.472 98.1251 755.853C98.1505 757.233 99.2901 758.332 100.671 758.306C102.051 758.281 103.15 757.141 103.124 755.761C103.099 754.38 101.959 753.282 100.579 753.307Z" fill="#2563EB"/>
<path d="M25.7199 761.683C24.3394 761.708 23.2409 762.848 23.2662 764.228C23.2916 765.609 24.4312 766.707 25.8117 766.682C27.1922 766.656 28.2907 765.517 28.2654 764.136C28.24 762.756 27.1004 761.657 25.7199 761.683Z" fill="#2563EB"/>
<path d="M155.037 723.302C153.657 723.328 152.558 724.467 152.584 725.848C152.609 727.228 153.749 728.327 155.129 728.302C156.51 728.276 157.608 727.137 157.583 725.756C157.557 724.376 156.418 723.277 155.037 723.302Z" fill="#2563EB"/>
<path d="M445.87 765.971C444.489 765.997 443.391 767.136 443.416 768.517C443.441 769.897 444.581 770.996 445.961 770.97C447.342 770.945 448.44 769.805 448.415 768.425C448.39 767.045 447.25 765.946 445.87 765.971Z" fill="#2563EB"/>
<path d="M16.3999 689.842C15.0194 689.867 13.9208 691.007 13.9462 692.387C13.9715 693.767 15.1112 694.866 16.4916 694.841C17.8721 694.815 18.9707 693.676 18.9453 692.295C18.92 690.915 17.7803 689.816 16.3999 689.842Z" fill="#2563EB"/>
<path d="M343.602 697.837C342.221 697.862 341.123 699.002 341.148 700.382C341.173 701.763 342.313 702.862 343.693 702.836C345.074 702.811 346.172 701.671 346.147 700.291C346.122 698.91 344.982 697.812 343.602 697.837Z" fill="#2563EB"/>
<path d="M288.511 747.857C287.13 747.882 286.032 749.022 286.057 750.402C286.082 751.783 287.222 752.881 288.602 752.856C289.983 752.83 291.081 751.691 291.056 750.31C291.031 748.93 289.891 747.831 288.511 747.857Z" fill="#2563EB"/>
<path d="M242.903 660.679C241.522 660.704 240.424 661.844 240.449 663.225C240.474 664.605 241.614 665.704 242.994 665.678C244.375 665.653 245.473 664.513 245.448 663.133C245.423 661.752 244.283 660.654 242.903 660.679Z" fill="#2563EB"/>
<path d="M669.015 771.876C667.635 771.902 666.536 773.041 666.562 774.422C666.587 775.802 667.727 776.901 669.107 776.875C670.488 776.85 671.586 775.71 671.561 774.33C671.536 772.95 670.396 771.851 669.015 771.876Z" fill="#2563EB"/>
<path d="M597.119 778.197C595.739 778.222 594.64 779.362 594.666 780.743C594.691 782.123 595.831 783.222 597.211 783.196C598.592 783.171 599.69 782.031 599.665 780.651C599.64 779.27 598.5 778.172 597.119 778.197Z" fill="#2563EB"/>
<path d="M630.343 735.58C628.962 735.605 627.864 736.745 627.889 738.126C627.914 739.506 629.054 740.605 630.435 740.579C631.815 740.554 632.914 739.414 632.888 738.034C632.863 736.653 631.723 735.555 630.343 735.58Z" fill="#2563EB"/>
<path d="M182.297 573.777C180.917 573.802 179.818 574.942 179.844 576.322C179.869 577.703 181.009 578.801 182.389 578.776C183.77 578.751 184.868 577.611 184.843 576.231C184.817 574.85 183.678 573.752 182.297 573.777Z" fill="#2563EB"/>
<path d="M102.77 600.241C101.389 600.266 100.291 601.406 100.316 602.787C100.341 604.167 101.481 605.266 102.862 605.24C104.242 605.215 105.341 604.075 105.315 602.695C105.29 601.314 104.15 600.216 102.77 600.241Z" fill="#2563EB"/>
<path d="M90.4868 530.455C89.1063 530.48 88.0077 531.62 88.0331 533C88.0584 534.381 89.1981 535.479 90.5785 535.454C91.959 535.429 93.0576 534.289 93.0322 532.909C93.0069 531.528 91.8672 530.429 90.4868 530.455Z" fill="#2563EB"/>
<path d="M1441.45 620.008C1440.07 620.034 1438.97 621.173 1438.99 622.554C1439.02 623.934 1440.16 625.033 1441.54 625.007C1442.92 624.982 1444.02 623.842 1443.99 622.462C1443.97 621.081 1442.83 619.983 1441.45 620.008Z" fill="#2563EB"/>
<path d="M1369.55 626.329C1368.17 626.354 1367.07 627.494 1367.1 628.874C1367.12 630.255 1368.26 631.353 1369.64 631.328C1371.02 631.303 1372.12 630.163 1372.1 628.783C1372.07 627.402 1370.93 626.304 1369.55 626.329Z" fill="#2563EB"/>
<path d="M1357.27 556.543C1355.89 556.568 1354.79 557.708 1354.81 559.088C1354.84 560.469 1355.98 561.567 1357.36 561.542C1358.74 561.517 1359.84 560.377 1359.81 558.996C1359.79 557.616 1358.65 556.517 1357.27 556.543Z" fill="#2563EB"/>
<path d="M662.579 634.307C661.198 634.332 660.1 635.472 660.125 636.853C660.15 638.233 661.29 639.332 662.67 639.306C664.051 639.281 665.149 638.141 665.124 636.761C665.099 635.38 663.959 634.282 662.579 634.307Z" fill="#2563EB"/>
<path d="M587.72 642.683C586.339 642.708 585.241 643.848 585.266 645.228C585.291 646.609 586.431 647.707 587.812 647.682C589.192 647.656 590.291 646.517 590.265 645.136C590.24 643.756 589.1 642.657 587.72 642.683Z" fill="#2563EB"/>
<path d="M717.037 604.302C715.657 604.328 714.558 605.467 714.583 606.848C714.609 608.228 715.748 609.327 717.129 609.302C718.509 609.276 719.608 608.137 719.583 606.756C719.557 605.376 718.418 604.277 717.037 604.302Z" fill="#2563EB"/>
<path d="M1007.87 646.971C1006.49 646.997 1005.39 648.136 1005.42 649.517C1005.44 650.897 1006.58 651.996 1007.96 651.97C1009.34 651.945 1010.44 650.805 1010.41 649.425C1010.39 648.045 1009.25 646.946 1007.87 646.971Z" fill="#2563EB"/>
<path d="M578.4 570.842C577.019 570.867 575.921 572.007 575.946 573.387C575.971 574.768 577.111 575.866 578.491 575.841C579.872 575.815 580.97 574.676 580.945 573.295C580.92 571.915 579.78 570.816 578.4 570.842Z" fill="#2563EB"/>
<path d="M905.601 578.837C904.221 578.862 903.122 580.002 903.148 581.382C903.173 582.763 904.313 583.862 905.693 583.836C907.074 583.811 908.172 582.671 908.147 581.291C908.122 579.91 906.982 578.812 905.601 578.837Z" fill="#2563EB"/>
<path d="M850.51 628.857C849.13 628.882 848.031 630.022 848.057 631.402C848.082 632.783 849.222 633.881 850.602 633.856C851.983 633.83 853.081 632.691 853.056 631.31C853.03 629.93 851.891 628.831 850.51 628.857Z" fill="#2563EB"/>
<path d="M804.902 541.679C803.522 541.704 802.423 542.844 802.449 544.225C802.474 545.605 803.614 546.704 804.994 546.678C806.375 546.653 807.473 545.513 807.448 544.133C807.423 542.752 806.283 541.654 804.902 541.679Z" fill="#2563EB"/>
<path d="M1231.02 652.876C1229.63 652.902 1228.54 654.041 1228.56 655.422C1228.59 656.802 1229.73 657.901 1231.11 657.875C1232.49 657.85 1233.59 656.71 1233.56 655.33C1233.54 653.95 1232.4 652.851 1231.02 652.876Z" fill="#2563EB"/>
<path d="M1159.12 659.197C1157.74 659.222 1156.64 660.362 1156.67 661.743C1156.69 663.123 1157.83 664.222 1159.21 664.196C1160.59 664.171 1161.69 663.031 1161.66 661.651C1161.64 660.27 1160.5 659.172 1159.12 659.197Z" fill="#2563EB"/>
<path d="M1192.34 616.58C1190.96 616.605 1189.86 617.745 1189.89 619.126C1189.91 620.506 1191.05 621.605 1192.43 621.579C1193.81 621.554 1194.91 620.414 1194.89 619.034C1194.86 617.653 1193.72 616.555 1192.34 616.58Z" fill="#2563EB"/>
<path d="M744.297 454.777C742.917 454.802 741.818 455.942 741.843 457.322C741.869 458.703 743.008 459.801 744.389 459.776C745.769 459.751 746.868 458.611 746.843 457.231C746.817 455.85 745.678 454.752 744.297 454.777Z" fill="#2563EB"/>
<path d="M664.769 481.241C663.389 481.266 662.29 482.406 662.316 483.787C662.341 485.167 663.481 486.266 664.861 486.24C666.242 486.215 667.34 485.075 667.315 483.695C667.29 482.314 666.15 481.216 664.769 481.241Z" fill="#2563EB"/>
<path d="M652.486 411.455C651.106 411.48 650.007 412.62 650.033 414C650.058 415.381 651.198 416.479 652.578 416.454C653.959 416.429 655.057 415.289 655.032 413.909C655.007 412.528 653.867 411.429 652.486 411.455Z" fill="#2563EB"/>
<path d="M1162.58 568.307C1161.2 568.332 1160.1 569.472 1160.12 570.853C1160.15 572.233 1161.29 573.332 1162.67 573.306C1164.05 573.281 1165.15 572.141 1165.12 570.761C1165.1 569.38 1163.96 568.282 1162.58 568.307Z" fill="#2563EB"/>
<path d="M1087.72 576.683C1086.34 576.708 1085.24 577.848 1085.27 579.228C1085.29 580.609 1086.43 581.707 1087.81 581.682C1089.19 581.656 1090.29 580.517 1090.27 579.136C1090.24 577.756 1089.1 576.657 1087.72 576.683Z" fill="#2563EB"/>
<path d="M1217.04 538.302C1215.66 538.328 1214.56 539.467 1214.58 540.848C1214.61 542.228 1215.75 543.327 1217.13 543.302C1218.51 543.276 1219.61 542.137 1219.58 540.756C1219.56 539.376 1218.42 538.277 1217.04 538.302Z" fill="#2563EB"/>
<path d="M1507.87 580.971C1506.49 580.997 1505.39 582.136 1505.42 583.517C1505.44 584.897 1506.58 585.996 1507.96 585.97C1509.34 585.945 1510.44 584.805 1510.41 583.425C1510.39 582.045 1509.25 580.946 1507.87 580.971Z" fill="#2563EB"/>
<path d="M1078.4 504.842C1077.02 504.867 1075.92 506.007 1075.95 507.387C1075.97 508.768 1077.11 509.866 1078.49 509.841C1079.87 509.815 1080.97 508.676 1080.95 507.295C1080.92 505.915 1079.78 504.816 1078.4 504.842Z" fill="#2563EB"/>
<path d="M1405.6 512.837C1404.22 512.862 1403.12 514.002 1403.15 515.382C1403.17 516.763 1404.31 517.862 1405.69 517.836C1407.07 517.811 1408.17 516.671 1408.15 515.291C1408.12 513.91 1406.98 512.812 1405.6 512.837Z" fill="#2563EB"/>
<path d="M1350.51 562.857C1349.13 562.882 1348.03 564.022 1348.06 565.402C1348.08 566.783 1349.22 567.881 1350.6 567.856C1351.98 567.83 1353.08 566.691 1353.06 565.31C1353.03 563.93 1351.89 562.831 1350.51 562.857Z" fill="#2563EB"/>
<path d="M1304.9 475.679C1303.52 475.704 1302.42 476.844 1302.45 478.225C1302.47 479.605 1303.61 480.704 1304.99 480.678C1306.37 480.653 1307.47 479.513 1307.45 478.133C1307.42 476.752 1306.28 475.654 1304.9 475.679Z" fill="#2563EB"/>
<path d="M1244.3 388.777C1242.92 388.802 1241.82 389.942 1241.84 391.322C1241.87 392.703 1243.01 393.801 1244.39 393.776C1245.77 393.751 1246.87 392.611 1246.84 391.231C1246.82 389.85 1245.68 388.752 1244.3 388.777Z" fill="#2563EB"/>
<path d="M1164.77 415.241C1163.39 415.266 1162.29 416.406 1162.32 417.787C1162.34 419.167 1163.48 420.266 1164.86 420.24C1166.24 420.215 1167.34 419.075 1167.31 417.695C1167.29 416.314 1166.15 415.216 1164.77 415.241Z" fill="#2563EB"/>
<path d="M1152.49 345.455C1151.11 345.48 1150.01 346.62 1150.03 348C1150.06 349.381 1151.2 350.479 1152.58 350.454C1153.96 350.429 1155.06 349.289 1155.03 347.909C1155.01 346.528 1153.87 345.429 1152.49 345.455Z" fill="#2563EB"/>
<path d="M1520.58 897.307C1519.2 897.332 1518.1 898.472 1518.13 899.853C1518.15 901.233 1519.29 902.332 1520.67 902.306C1522.05 902.281 1523.15 901.141 1523.12 899.761C1523.1 898.38 1521.96 897.282 1520.58 897.307Z" fill="#2563EB"/>
<path d="M1445.72 905.683C1444.34 905.708 1443.24 906.848 1443.27 908.228C1443.29 909.609 1444.43 910.707 1445.81 910.682C1447.19 910.656 1448.29 909.517 1448.27 908.136C1448.24 906.756 1447.1 905.657 1445.72 905.683Z" fill="#2563EB"/>
<path d="M1575.04 867.302C1573.66 867.328 1572.56 868.467 1572.58 869.848C1572.61 871.228 1573.75 872.327 1575.13 872.302C1576.51 872.276 1577.61 871.137 1577.58 869.756C1577.56 868.376 1576.42 867.277 1575.04 867.302Z" fill="#2563EB"/>
<path d="M1436.4 833.842C1435.02 833.867 1433.92 835.007 1433.95 836.387C1433.97 837.767 1435.11 838.866 1436.49 838.841C1437.87 838.815 1438.97 837.676 1438.95 836.295C1438.92 834.915 1437.78 833.816 1436.4 833.842Z" fill="#2563EB"/>
<path d="M1602.3 717.777C1600.92 717.802 1599.82 718.942 1599.84 720.322C1599.87 721.703 1601.01 722.801 1602.39 722.776C1603.77 722.751 1604.87 721.611 1604.84 720.231C1604.82 718.85 1603.68 717.752 1602.3 717.777Z" fill="#2563EB"/>
<path d="M1522.77 744.241C1521.39 744.266 1520.29 745.406 1520.32 746.787C1520.34 748.167 1521.48 749.266 1522.86 749.24C1524.24 749.215 1525.34 748.075 1525.32 746.695C1525.29 745.314 1524.15 744.216 1522.77 744.241Z" fill="#2563EB"/>
<path d="M1510.49 674.455C1509.11 674.48 1508.01 675.62 1508.03 677C1508.06 678.381 1509.2 679.479 1510.58 679.454C1511.96 679.429 1513.06 678.289 1513.03 676.909C1513.01 675.528 1511.87 674.429 1510.49 674.455Z" fill="#2563EB"/>
<path d="M705.5 371C706.881 371 708 369.881 708 368.5C708 367.119 706.881 366 705.5 366C704.119 366 703 367.119 703 368.5C703 369.881 704.119 371 705.5 371Z" fill="#9333EA"/>
<path d="M777.5 366C778.881 366 780 364.881 780 363.5C780 362.119 778.881 361 777.5 361C776.119 361 775 362.119 775 363.5C775 364.881 776.119 366 777.5 366Z" fill="#9333EA"/>
<path d="M788.5 436C789.881 436 791 434.881 791 433.5C791 432.119 789.881 431 788.5 431C787.119 431 786 432.119 786 433.5C786 434.881 787.119 436 788.5 436Z" fill="#9333EA"/>
<path d="M1484.5 371C1485.88 371 1487 369.881 1487 368.5C1487 367.119 1485.88 366 1484.5 366C1483.12 366 1482 367.119 1482 368.5C1482 369.881 1483.12 371 1484.5 371Z" fill="#9333EA"/>
<path d="M1559.5 364C1560.88 364 1562 362.881 1562 361.5C1562 360.119 1560.88 359 1559.5 359C1558.12 359 1557 360.119 1557 361.5C1557 362.881 1558.12 364 1559.5 364Z" fill="#9333EA"/>
<path d="M1429.5 400C1430.88 400 1432 398.881 1432 397.5C1432 396.119 1430.88 395 1429.5 395C1428.12 395 1427 396.119 1427 397.5C1427 398.881 1428.12 400 1429.5 400Z" fill="#9333EA"/>
<path d="M1139.5 352C1140.88 352 1142 350.881 1142 349.5C1142 348.119 1140.88 347 1139.5 347C1138.12 347 1137 348.119 1137 349.5C1137 350.881 1138.12 352 1139.5 352Z" fill="#9333EA"/>
<path d="M1567.5 436C1568.88 436 1570 434.881 1570 433.5C1570 432.119 1568.88 431 1567.5 431C1566.12 431 1565 432.119 1565 433.5C1565 434.881 1566.12 436 1567.5 436Z" fill="#9333EA"/>
<path d="M1240.5 422C1241.88 422 1243 420.881 1243 419.5C1243 418.119 1241.88 417 1240.5 417C1239.12 417 1238 418.119 1238 419.5C1238 420.881 1239.12 422 1240.5 422Z" fill="#9333EA"/>
<path d="M1296.5 373C1297.88 373 1299 371.881 1299 370.5C1299 369.119 1297.88 368 1296.5 368C1295.12 368 1294 369.119 1294 370.5C1294 371.881 1295.12 373 1296.5 373Z" fill="#9333EA"/>
<path d="M1340.5 461C1341.88 461 1343 459.881 1343 458.5C1343 457.119 1341.88 456 1340.5 456C1339.12 456 1338 457.119 1338 458.5C1338 459.881 1339.12 461 1340.5 461Z" fill="#9333EA"/>
<path d="M916.5 342C917.881 342 919 340.881 919 339.5C919 338.119 917.881 337 916.5 337C915.119 337 914 338.119 914 339.5C914 340.881 915.119 342 916.5 342Z" fill="#9333EA"/>
<path d="M988.5 337C989.881 337 991 335.881 991 334.5C991 333.119 989.881 332 988.5 332C987.119 332 986 333.119 986 334.5C986 335.881 987.119 337 988.5 337Z" fill="#9333EA"/>
<path d="M954.5 379C955.881 379 957 377.881 957 376.5C957 375.119 955.881 374 954.5 374C953.119 374 952 375.119 952 376.5C952 377.881 953.119 379 954.5 379Z" fill="#9333EA"/>
<path d="M1399.5 549C1400.88 549 1402 547.881 1402 546.5C1402 545.119 1400.88 544 1399.5 544C1398.12 544 1397 545.119 1397 546.5C1397 547.881 1398.12 549 1399.5 549Z" fill="#9333EA"/>
<path d="M1479.5 524C1480.88 524 1482 522.881 1482 521.5C1482 520.119 1480.88 519 1479.5 519C1478.12 519 1477 520.119 1477 521.5C1477 522.881 1478.12 524 1479.5 524Z" fill="#9333EA"/>
<path d="M1490.5 594C1491.88 594 1493 592.881 1493 591.5C1493 590.119 1491.88 589 1490.5 589C1489.12 589 1488 590.119 1488 591.5C1488 592.881 1489.12 594 1490.5 594Z" fill="#9333EA"/>
<path d="M1264.45 555.008C1263.07 555.034 1261.97 556.173 1261.99 557.554C1262.02 558.934 1263.16 560.033 1264.54 560.007C1265.92 559.982 1267.02 558.842 1266.99 557.462C1266.97 556.081 1265.83 554.983 1264.45 555.008Z" fill="#9333EA"/>
<path d="M1192.55 561.329C1191.17 561.354 1190.07 562.494 1190.1 563.874C1190.12 565.255 1191.26 566.354 1192.64 566.328C1194.02 566.303 1195.12 565.163 1195.1 563.783C1195.07 562.402 1193.93 561.304 1192.55 561.329Z" fill="#9333EA"/>
<path d="M1180.27 491.543C1178.89 491.568 1177.79 492.708 1177.81 494.088C1177.84 495.469 1178.98 496.567 1180.36 496.542C1181.74 496.517 1182.84 495.377 1182.81 493.996C1182.79 492.616 1181.65 491.517 1180.27 491.543Z" fill="#9333EA"/>
<path d="M485.579 569.307C484.198 569.332 483.1 570.472 483.125 571.853C483.15 573.233 484.29 574.332 485.67 574.306C487.051 574.281 488.149 573.141 488.124 571.761C488.099 570.38 486.959 569.282 485.579 569.307Z" fill="#9333EA"/>
<path d="M410.72 577.683C409.339 577.708 408.241 578.848 408.266 580.228C408.291 581.609 409.431 582.707 410.812 582.682C412.192 582.656 413.291 581.517 413.265 580.136C413.24 578.756 412.1 577.657 410.72 577.683Z" fill="#9333EA"/>
<path d="M540.037 539.302C538.657 539.328 537.558 540.467 537.583 541.848C537.609 543.228 538.748 544.327 540.129 544.302C541.509 544.276 542.608 543.137 542.583 541.756C542.557 540.376 541.418 539.277 540.037 539.302Z" fill="#9333EA"/>
<path d="M830.869 581.971C829.489 581.997 828.39 583.136 828.416 584.517C828.441 585.897 829.581 586.996 830.961 586.97C832.342 586.945 833.44 585.805 833.415 584.425C833.389 583.045 832.25 581.946 830.869 581.971Z" fill="#9333EA"/>
<path d="M401.4 505.842C400.019 505.867 398.921 507.007 398.946 508.387C398.971 509.768 400.111 510.866 401.491 510.841C402.872 510.815 403.97 509.676 403.945 508.295C403.92 506.915 402.78 505.816 401.4 505.842Z" fill="#9333EA"/>
<path d="M728.601 513.837C727.221 513.862 726.122 515.002 726.148 516.382C726.173 517.763 727.313 518.862 728.693 518.836C730.074 518.811 731.172 517.671 731.147 516.291C731.122 514.91 729.982 513.812 728.601 513.837Z" fill="#9333EA"/>
<path d="M673.51 563.857C672.13 563.882 671.031 565.022 671.057 566.402C671.082 567.783 672.222 568.881 673.602 568.856C674.983 568.83 676.081 567.691 676.056 566.31C676.03 564.93 674.891 563.831 673.51 563.857Z" fill="#9333EA"/>
<path d="M627.902 476.679C626.522 476.704 625.423 477.844 625.449 479.225C625.474 480.605 626.614 481.704 627.994 481.678C629.375 481.653 630.473 480.513 630.448 479.133C630.423 477.752 629.283 476.654 627.902 476.679Z" fill="#9333EA"/>
<path d="M1054.02 587.876C1052.63 587.902 1051.54 589.041 1051.56 590.422C1051.59 591.802 1052.73 592.901 1054.11 592.875C1055.49 592.85 1056.59 591.71 1056.56 590.33C1056.54 588.95 1055.4 587.851 1054.02 587.876Z" fill="#9333EA"/>
<path d="M982.119 594.197C980.739 594.222 979.64 595.362 979.666 596.743C979.691 598.123 980.831 599.222 982.211 599.196C983.591 599.171 984.69 598.031 984.665 596.651C984.639 595.27 983.5 594.172 982.119 594.197Z" fill="#9333EA"/>
<path d="M1015.34 551.58C1013.96 551.605 1012.86 552.745 1012.89 554.126C1012.91 555.506 1014.05 556.605 1015.43 556.579C1016.81 556.554 1017.91 555.414 1017.89 554.034C1017.86 552.653 1016.72 551.555 1015.34 551.58Z" fill="#9333EA"/>
<path d="M567.297 389.777C565.917 389.802 564.818 390.942 564.843 392.322C564.869 393.703 566.008 394.801 567.389 394.776C568.769 394.751 569.868 393.611 569.843 392.231C569.817 390.85 568.678 389.752 567.297 389.777Z" fill="#9333EA"/>
<path d="M487.769 416.241C486.389 416.266 485.29 417.406 485.316 418.787C485.341 420.167 486.481 421.266 487.861 421.24C489.242 421.215 490.34 420.075 490.315 418.695C490.29 417.314 489.15 416.216 487.769 416.241Z" fill="#9333EA"/>
<path d="M475.486 346.455C474.106 346.48 473.007 347.62 473.033 349C473.058 350.381 474.198 351.479 475.578 351.454C476.959 351.429 478.057 350.289 478.032 348.909C478.007 347.528 476.867 346.429 475.486 346.455Z" fill="#9333EA"/>
<path d="M1062.45 523.008C1061.07 523.034 1059.97 524.173 1059.99 525.554C1060.02 526.934 1061.16 528.033 1062.54 528.007C1063.92 527.982 1065.02 526.842 1064.99 525.462C1064.97 524.081 1063.83 522.983 1062.45 523.008Z" fill="#9333EA"/>
<path d="M990.551 529.329C989.171 529.354 988.072 530.494 988.098 531.874C988.123 533.255 989.263 534.354 990.643 534.328C992.024 534.303 993.122 533.163 993.097 531.783C993.071 530.402 991.932 529.304 990.551 529.329Z" fill="#9333EA"/>
<path d="M978.268 459.543C976.888 459.568 975.789 460.708 975.815 462.088C975.84 463.469 976.98 464.567 978.36 464.542C979.741 464.517 980.839 463.377 980.814 461.996C980.788 460.616 979.649 459.517 978.268 459.543Z" fill="#9333EA"/>
<path d="M283.579 537.307C282.198 537.332 281.1 538.472 281.125 539.853C281.15 541.233 282.29 542.332 283.67 542.306C285.051 542.281 286.149 541.141 286.124 539.761C286.099 538.38 284.959 537.282 283.579 537.307Z" fill="#9333EA"/>
<path d="M208.72 545.683C207.339 545.708 206.241 546.848 206.266 548.228C206.291 549.609 207.431 550.707 208.811 550.682C210.192 550.656 211.29 549.517 211.265 548.136C211.24 546.756 210.1 545.657 208.72 545.683Z" fill="#9333EA"/>
<path d="M338.037 507.302C336.657 507.328 335.558 508.467 335.583 509.848C335.609 511.228 336.748 512.327 338.129 512.302C339.509 512.276 340.608 511.137 340.583 509.756C340.557 508.376 339.418 507.277 338.037 507.302Z" fill="#9333EA"/>
<path d="M628.869 549.971C627.489 549.997 626.39 551.136 626.416 552.517C626.441 553.897 627.581 554.996 628.961 554.97C630.342 554.945 631.44 553.805 631.415 552.425C631.389 551.045 630.25 549.946 628.869 549.971Z" fill="#9333EA"/>
<path d="M199.4 473.842C198.019 473.867 196.921 475.007 196.946 476.387C196.971 477.768 198.111 478.866 199.491 478.841C200.872 478.815 201.97 477.676 201.945 476.295C201.92 474.915 200.78 473.816 199.4 473.842Z" fill="#9333EA"/>
<path d="M526.601 481.837C525.221 481.862 524.122 483.002 524.148 484.382C524.173 485.763 525.313 486.862 526.693 486.836C528.074 486.811 529.172 485.671 529.147 484.291C529.122 482.91 527.982 481.812 526.601 481.837Z" fill="#9333EA"/>
<path d="M471.51 531.857C470.13 531.882 469.031 533.022 469.057 534.402C469.082 535.783 470.222 536.881 471.602 536.856C472.983 536.83 474.081 535.691 474.056 534.31C474.03 532.93 472.891 531.831 471.51 531.857Z" fill="#9333EA"/>
<path d="M425.902 444.679C424.522 444.704 423.423 445.844 423.449 447.225C423.474 448.605 424.614 449.704 425.994 449.678C427.375 449.653 428.473 448.513 428.448 447.133C428.423 445.752 427.283 444.654 425.902 444.679Z" fill="#9333EA"/>
<path d="M852.015 555.876C850.635 555.902 849.536 557.041 849.562 558.422C849.587 559.802 850.727 560.901 852.107 560.876C853.487 560.85 854.586 559.711 854.561 558.33C854.535 556.95 853.396 555.851 852.015 555.876Z" fill="#9333EA"/>
<path d="M780.119 562.197C778.739 562.222 777.64 563.362 777.666 564.743C777.691 566.123 778.831 567.222 780.211 567.196C781.591 567.171 782.69 566.031 782.665 564.651C782.639 563.27 781.5 562.172 780.119 562.197Z" fill="#9333EA"/>
<path d="M813.342 519.58C811.962 519.605 810.863 520.745 810.889 522.126C810.914 523.506 812.054 524.605 813.434 524.579C814.815 524.554 815.913 523.414 815.888 522.034C815.863 520.653 814.723 519.555 813.342 519.58Z" fill="#9333EA"/>
<path d="M365.297 357.777C363.917 357.802 362.818 358.942 362.843 360.322C362.869 361.703 364.008 362.801 365.389 362.776C366.769 362.751 367.868 361.611 367.843 360.231C367.817 358.85 366.678 357.752 365.297 357.777Z" fill="#9333EA"/>
<path d="M285.769 384.241C284.389 384.266 283.29 385.406 283.316 386.787C283.341 388.167 284.481 389.266 285.861 389.24C287.242 389.215 288.34 388.075 288.315 386.695C288.29 385.314 287.15 384.216 285.769 384.241Z" fill="#9333EA"/>
<path d="M273.486 314.455C272.106 314.48 271.007 315.62 271.033 317C271.058 318.381 272.198 319.479 273.578 319.454C274.959 319.429 276.057 318.289 276.032 316.909C276.007 315.528 274.867 314.429 273.486 314.455Z" fill="#9333EA"/>
<path d="M824.448 467.008C823.067 467.034 821.969 468.173 821.994 469.554C822.019 470.934 823.159 472.033 824.539 472.007C825.92 471.982 827.019 470.843 826.993 469.462C826.968 468.082 825.828 466.983 824.448 467.008Z" fill="#9333EA"/>
<path d="M752.552 473.329C751.171 473.354 750.073 474.494 750.098 475.875C750.123 477.255 751.263 478.354 752.643 478.328C754.024 478.303 755.122 477.163 755.097 475.783C755.072 474.402 753.932 473.304 752.552 473.329Z" fill="#9333EA"/>
<path d="M740.269 403.543C738.888 403.568 737.789 404.708 737.815 406.088C737.84 407.469 738.98 408.567 740.36 408.542C741.741 408.517 742.839 407.377 742.814 405.996C742.789 404.616 741.649 403.517 740.269 403.543Z" fill="#9333EA"/>
<path d="M45.5788 481.307C44.1983 481.333 43.0998 482.472 43.1251 483.853C43.1505 485.233 44.2901 486.332 45.6706 486.306C47.0511 486.281 48.1496 485.141 48.1243 483.761C48.0989 482.38 46.9593 481.282 45.5788 481.307Z" fill="#9333EA"/>
<path d="M100.037 451.303C98.6568 451.328 97.5583 452.468 97.5836 453.848C97.609 455.228 98.7486 456.327 100.129 456.302C101.51 456.276 102.608 455.137 102.583 453.756C102.557 452.376 101.418 451.277 100.037 451.303Z" fill="#9333EA"/>
<path d="M390.87 493.971C389.489 493.997 388.391 495.136 388.416 496.517C388.441 497.897 389.581 498.996 390.961 498.971C392.342 498.945 393.44 497.806 393.415 496.425C393.39 495.045 392.25 493.946 390.87 493.971Z" fill="#9333EA"/>
<path d="M288.602 425.837C287.221 425.862 286.123 427.002 286.148 428.383C286.173 429.763 287.313 430.862 288.693 430.836C290.074 430.811 291.172 429.671 291.147 428.291C291.122 426.91 289.982 425.812 288.602 425.837Z" fill="#9333EA"/>
<path d="M233.511 475.857C232.13 475.882 231.032 477.022 231.057 478.402C231.082 479.783 232.222 480.881 233.602 480.856C234.983 480.831 236.081 479.691 236.056 478.31C236.031 476.93 234.891 475.831 233.511 475.857Z" fill="#9333EA"/>
<path d="M187.903 388.679C186.522 388.705 185.424 389.844 185.449 391.225C185.474 392.605 186.614 393.704 187.994 393.678C189.375 393.653 190.473 392.513 190.448 391.133C190.423 389.752 189.283 388.654 187.903 388.679Z" fill="#9333EA"/>
<path d="M614.015 499.876C612.635 499.902 611.536 501.041 611.562 502.422C611.587 503.802 612.727 504.901 614.107 504.876C615.488 504.85 616.586 503.711 616.561 502.33C616.536 500.95 615.396 499.851 614.015 499.876Z" fill="#9333EA"/>
<path d="M542.119 506.197C540.739 506.223 539.64 507.362 539.666 508.743C539.691 510.123 540.831 511.222 542.211 511.196C543.592 511.171 544.69 510.031 544.665 508.651C544.64 507.27 543.5 506.172 542.119 506.197Z" fill="#9333EA"/>
<path d="M575.343 463.58C573.962 463.606 572.864 464.745 572.889 466.126C572.914 467.506 574.054 468.605 575.435 468.579C576.815 468.554 577.914 467.414 577.888 466.034C577.863 464.653 576.723 463.555 575.343 463.58Z" fill="#9333EA"/>
<path d="M127.297 301.777C125.917 301.802 124.818 302.942 124.844 304.322C124.869 305.703 126.009 306.801 127.389 306.776C128.77 306.751 129.868 305.611 129.843 304.231C129.817 302.85 128.678 301.752 127.297 301.777Z" fill="#9333EA"/>
<path d="M47.7697 328.241C46.3892 328.267 45.2907 329.406 45.316 330.787C45.3414 332.167 46.481 333.266 47.8615 333.24C49.242 333.215 50.3405 332.075 50.3152 330.695C50.2899 329.314 49.1502 328.216 47.7697 328.241Z" fill="#9333EA"/>
<path d="M35.4868 258.455C34.1063 258.48 33.0077 259.62 33.0331 261C33.0584 262.381 34.1981 263.479 35.5785 263.454C36.959 263.429 38.0576 262.289 38.0322 260.909C38.0069 259.528 36.8672 258.43 35.4868 258.455Z" fill="#9333EA"/>
<path d="M1386.45 348.008C1385.07 348.034 1383.97 349.173 1383.99 350.554C1384.02 351.934 1385.16 353.033 1386.54 353.007C1387.92 352.982 1389.02 351.843 1388.99 350.462C1388.97 349.082 1387.83 347.983 1386.45 348.008Z" fill="#9333EA"/>
<path d="M1314.55 354.329C1313.17 354.354 1312.07 355.494 1312.1 356.875C1312.12 358.255 1313.26 359.354 1314.64 359.328C1316.02 359.303 1317.12 358.163 1317.1 356.783C1317.07 355.402 1315.93 354.304 1314.55 354.329Z" fill="#9333EA"/>
<path d="M1302.27 284.543C1300.89 284.568 1299.79 285.708 1299.81 287.088C1299.84 288.469 1300.98 289.567 1302.36 289.542C1303.74 289.517 1304.84 288.377 1304.81 286.996C1304.79 285.616 1303.65 284.517 1302.27 284.543Z" fill="#9333EA"/>
<path d="M607.579 362.307C606.198 362.333 605.1 363.472 605.125 364.853C605.15 366.233 606.29 367.332 607.67 367.306C609.051 367.281 610.149 366.141 610.124 364.761C610.099 363.38 608.959 362.282 607.579 362.307Z" fill="#9333EA"/>
<path d="M532.72 370.683C531.339 370.708 530.241 371.848 530.266 373.228C530.291 374.609 531.431 375.707 532.812 375.682C534.192 375.656 535.291 374.517 535.265 373.136C535.24 371.756 534.1 370.657 532.72 370.683Z" fill="#9333EA"/>
<path d="M662.037 332.303C660.657 332.328 659.558 333.468 659.583 334.848C659.609 336.228 660.748 337.327 662.129 337.302C663.509 337.276 664.608 336.137 664.583 334.756C664.557 333.376 663.418 332.277 662.037 332.303Z" fill="#9333EA"/>
<path d="M952.869 374.971C951.489 374.997 950.39 376.136 950.416 377.517C950.441 378.897 951.581 379.996 952.961 379.971C954.342 379.945 955.44 378.806 955.415 377.425C955.389 376.045 954.25 374.946 952.869 374.971Z" fill="#9333EA"/>
<path d="M523.4 298.842C522.019 298.867 520.921 300.007 520.946 301.387C520.971 302.768 522.111 303.866 523.491 303.841C524.872 303.815 525.97 302.676 525.945 301.295C525.92 299.915 524.78 298.816 523.4 298.842Z" fill="#9333EA"/>
<path d="M850.601 306.837C849.221 306.862 848.122 308.002 848.148 309.383C848.173 310.763 849.313 311.862 850.693 311.836C852.074 311.811 853.172 310.671 853.147 309.291C853.122 307.91 851.982 306.812 850.601 306.837Z" fill="#9333EA"/>
<path d="M795.51 356.857C794.13 356.882 793.031 358.022 793.057 359.402C793.082 360.783 794.222 361.881 795.602 361.856C796.983 361.831 798.081 360.691 798.056 359.31C798.03 357.93 796.891 356.831 795.51 356.857Z" fill="#9333EA"/>
<path d="M749.902 269.679C748.522 269.705 747.423 270.844 747.449 272.225C747.474 273.605 748.614 274.704 749.994 274.678C751.375 274.653 752.473 273.513 752.448 272.133C752.423 270.752 751.283 269.654 749.902 269.679Z" fill="#9333EA"/>
<path d="M1176.02 380.876C1174.63 380.902 1173.54 382.041 1173.56 383.422C1173.59 384.802 1174.73 385.901 1176.11 385.876C1177.49 385.85 1178.59 384.711 1178.56 383.33C1178.54 381.95 1177.4 380.851 1176.02 380.876Z" fill="#9333EA"/>
<path d="M1104.12 387.197C1102.74 387.223 1101.64 388.362 1101.67 389.743C1101.69 391.123 1102.83 392.222 1104.21 392.196C1105.59 392.171 1106.69 391.031 1106.66 389.651C1106.64 388.27 1105.5 387.172 1104.12 387.197Z" fill="#9333EA"/>
<path d="M1137.34 344.58C1135.96 344.606 1134.86 345.745 1134.89 347.126C1134.91 348.506 1136.05 349.605 1137.43 349.579C1138.81 349.554 1139.91 348.414 1139.89 347.034C1139.86 345.653 1138.72 344.555 1137.34 344.58Z" fill="#9333EA"/>
<path d="M689.297 182.777C687.917 182.802 686.818 183.942 686.843 185.322C686.869 186.703 688.008 187.801 689.389 187.776C690.769 187.751 691.868 186.611 691.843 185.231C691.817 183.85 690.678 182.752 689.297 182.777Z" fill="#9333EA"/>
<path d="M609.769 209.241C608.389 209.267 607.29 210.406 607.316 211.787C607.341 213.167 608.481 214.266 609.861 214.24C611.242 214.215 612.34 213.075 612.315 211.695C612.29 210.314 611.15 209.216 609.769 209.241Z" fill="#9333EA"/>
<path d="M597.486 139.455C596.106 139.48 595.007 140.62 595.033 142C595.058 143.381 596.198 144.479 597.578 144.454C598.959 144.429 600.057 143.289 600.032 141.909C600.007 140.528 598.867 139.43 597.486 139.455Z" fill="#9333EA"/>
<path d="M1107.58 296.307C1106.2 296.332 1105.1 297.472 1105.12 298.853C1105.15 300.233 1106.29 301.332 1107.67 301.306C1109.05 301.281 1110.15 300.141 1110.12 298.761C1110.1 297.38 1108.96 296.282 1107.58 296.307Z" fill="#9333EA"/>
<path d="M1032.72 304.683C1031.34 304.708 1030.24 305.848 1030.27 307.228C1030.29 308.609 1031.43 309.707 1032.81 309.682C1034.19 309.656 1035.29 308.517 1035.27 307.136C1035.24 305.756 1034.1 304.657 1032.72 304.683Z" fill="#9333EA"/>
<path d="M1162.04 266.302C1160.66 266.328 1159.56 267.467 1159.58 268.848C1159.61 270.228 1160.75 271.327 1162.13 271.302C1163.51 271.276 1164.61 270.137 1164.58 268.756C1164.56 267.376 1163.42 266.277 1162.04 266.302Z" fill="#9333EA"/>
<path d="M1452.87 308.971C1451.49 308.997 1450.39 310.136 1450.42 311.517C1450.44 312.897 1451.58 313.996 1452.96 313.97C1454.34 313.945 1455.44 312.805 1455.41 311.425C1455.39 310.045 1454.25 308.946 1452.87 308.971Z" fill="#9333EA"/>
<path d="M1023.4 232.842C1022.02 232.867 1020.92 234.007 1020.95 235.387C1020.97 236.768 1022.11 237.866 1023.49 237.841C1024.87 237.815 1025.97 236.676 1025.95 235.295C1025.92 233.915 1024.78 232.816 1023.4 232.842Z" fill="#9333EA"/>
<path d="M1350.6 240.837C1349.22 240.862 1348.12 242.002 1348.15 243.382C1348.17 244.763 1349.31 245.862 1350.69 245.836C1352.07 245.811 1353.17 244.671 1353.15 243.291C1353.12 241.91 1351.98 240.812 1350.6 240.837Z" fill="#9333EA"/>
<path d="M1295.51 290.857C1294.13 290.882 1293.03 292.022 1293.06 293.402C1293.08 294.783 1294.22 295.881 1295.6 295.856C1296.98 295.83 1298.08 294.691 1298.06 293.31C1298.03 291.93 1296.89 290.831 1295.51 290.857Z" fill="#9333EA"/>
<path d="M1249.9 203.679C1248.52 203.704 1247.42 204.844 1247.45 206.225C1247.47 207.605 1248.61 208.704 1249.99 208.678C1251.37 208.653 1252.47 207.513 1252.45 206.133C1252.42 204.752 1251.28 203.654 1249.9 203.679Z" fill="#9333EA"/>
<path d="M1189.3 116.777C1187.92 116.802 1186.82 117.942 1186.84 119.322C1186.87 120.703 1188.01 121.801 1189.39 121.776C1190.77 121.751 1191.87 120.611 1191.84 119.231C1191.82 117.85 1190.68 116.752 1189.3 116.777Z" fill="#9333EA"/>
<path d="M1109.77 143.241C1108.39 143.266 1107.29 144.406 1107.32 145.787C1107.34 147.167 1108.48 148.266 1109.86 148.24C1111.24 148.215 1112.34 147.075 1112.31 145.695C1112.29 144.314 1111.15 143.216 1109.77 143.241Z" fill="#9333EA"/>
<path d="M1097.49 73.4548C1096.11 73.4802 1095.01 74.6198 1095.03 76.0003C1095.06 77.3808 1096.2 78.4793 1097.58 78.454C1098.96 78.4286 1100.06 77.289 1100.03 75.9085C1100.01 74.528 1098.87 73.4295 1097.49 73.4548Z" fill="#9333EA"/>
<path d="M1465.58 625.307C1464.2 625.332 1463.1 626.472 1463.13 627.853C1463.15 629.233 1464.29 630.332 1465.67 630.306C1467.05 630.281 1468.15 629.141 1468.12 627.761C1468.1 626.38 1466.96 625.282 1465.58 625.307Z" fill="#9333EA"/>
<path d="M1390.72 633.683C1389.34 633.708 1388.24 634.848 1388.27 636.228C1388.29 637.609 1389.43 638.707 1390.81 638.682C1392.19 638.656 1393.29 637.517 1393.27 636.136C1393.24 634.756 1392.1 633.657 1390.72 633.683Z" fill="#9333EA"/>
<path d="M1520.04 595.302C1518.66 595.328 1517.56 596.467 1517.58 597.848C1517.61 599.228 1518.75 600.327 1520.13 600.302C1521.51 600.276 1522.61 599.137 1522.58 597.756C1522.56 596.376 1521.42 595.277 1520.04 595.302Z" fill="#9333EA"/>
<path d="M1381.4 561.842C1380.02 561.867 1378.92 563.007 1378.95 564.387C1378.97 565.768 1380.11 566.866 1381.49 566.841C1382.87 566.815 1383.97 565.676 1383.95 564.295C1383.92 562.915 1382.78 561.816 1381.4 561.842Z" fill="#9333EA"/>
<path d="M1547.3 445.777C1545.92 445.802 1544.82 446.942 1544.84 448.322C1544.87 449.703 1546.01 450.801 1547.39 450.776C1548.77 450.751 1549.87 449.611 1549.84 448.231C1549.82 446.85 1548.68 445.752 1547.3 445.777Z" fill="#9333EA"/>
<path d="M1467.77 472.241C1466.39 472.266 1465.29 473.406 1465.32 474.787C1465.34 476.167 1466.48 477.266 1467.86 477.24C1469.24 477.215 1470.34 476.075 1470.32 474.695C1470.29 473.314 1469.15 472.216 1467.77 472.241Z" fill="#9333EA"/>
<path d="M1455.49 402.455C1454.11 402.48 1453.01 403.62 1453.03 405C1453.06 406.381 1454.2 407.479 1455.58 407.454C1456.96 407.429 1458.06 406.289 1458.03 404.909C1458.01 403.528 1456.87 402.429 1455.49 402.455Z" fill="#9333EA"/>
<path d="M705.5 844C706.881 844 708 842.881 708 841.5C708 840.119 706.881 839 705.5 839C704.119 839 703 840.119 703 841.5C703 842.881 704.119 844 705.5 844Z" fill="white"/>
<path d="M777.5 839C778.881 839 780 837.881 780 836.5C780 835.119 778.881 834 777.5 834C776.119 834 775 835.119 775 836.5C775 837.881 776.119 839 777.5 839Z" fill="white"/>
<path d="M788.5 909C789.881 909 791 907.881 791 906.5C791 905.119 789.881 904 788.5 904C787.119 904 786 905.119 786 906.5C786 907.881 787.119 909 788.5 909Z" fill="white"/>
<path d="M1484.5 844C1485.88 844 1487 842.881 1487 841.5C1487 840.119 1485.88 839 1484.5 839C1483.12 839 1482 840.119 1482 841.5C1482 842.881 1483.12 844 1484.5 844Z" fill="white"/>
<path d="M1559.5 837C1560.88 837 1562 835.881 1562 834.5C1562 833.119 1560.88 832 1559.5 832C1558.12 832 1557 833.119 1557 834.5C1557 835.881 1558.12 837 1559.5 837Z" fill="white"/>
<path d="M1429.5 873C1430.88 873 1432 871.881 1432 870.5C1432 869.119 1430.88 868 1429.5 868C1428.12 868 1427 869.119 1427 870.5C1427 871.881 1428.12 873 1429.5 873Z" fill="white"/>
<path d="M1139.5 825C1140.88 825 1142 823.881 1142 822.5C1142 821.119 1140.88 820 1139.5 820C1138.12 820 1137 821.119 1137 822.5C1137 823.881 1138.12 825 1139.5 825Z" fill="white"/>
<path d="M1567.5 909C1568.88 909 1570 907.881 1570 906.5C1570 905.119 1568.88 904 1567.5 904C1566.12 904 1565 905.119 1565 906.5C1565 907.881 1566.12 909 1567.5 909Z" fill="white"/>
<path d="M1240.5 895C1241.88 895 1243 893.881 1243 892.5C1243 891.119 1241.88 890 1240.5 890C1239.12 890 1238 891.119 1238 892.5C1238 893.881 1239.12 895 1240.5 895Z" fill="white"/>
<path d="M1296.5 846C1297.88 846 1299 844.881 1299 843.5C1299 842.119 1297.88 841 1296.5 841C1295.12 841 1294 842.119 1294 843.5C1294 844.881 1295.12 846 1296.5 846Z" fill="white"/>
<path d="M1340.5 934C1341.88 934 1343 932.881 1343 931.5C1343 930.119 1341.88 929 1340.5 929C1339.12 929 1338 930.119 1338 931.5C1338 932.881 1339.12 934 1340.5 934Z" fill="white"/>
<path d="M916.5 815C917.881 815 919 813.881 919 812.5C919 811.119 917.881 810 916.5 810C915.119 810 914 811.119 914 812.5C914 813.881 915.119 815 916.5 815Z" fill="white"/>
<path d="M988.5 810C989.881 810 991 808.881 991 807.5C991 806.119 989.881 805 988.5 805C987.119 805 986 806.119 986 807.5C986 808.881 987.119 810 988.5 810Z" fill="white"/>
<path d="M954.5 852C955.881 852 957 850.881 957 849.5C957 848.119 955.881 847 954.5 847C953.119 847 952 848.119 952 849.5C952 850.881 953.119 852 954.5 852Z" fill="white"/>
<path d="M1399.5 1022C1400.88 1022 1402 1020.88 1402 1019.5C1402 1018.12 1400.88 1017 1399.5 1017C1398.12 1017 1397 1018.12 1397 1019.5C1397 1020.88 1398.12 1022 1399.5 1022Z" fill="white"/>
<path d="M1479.5 997C1480.88 997 1482 995.881 1482 994.5C1482 993.119 1480.88 992 1479.5 992C1478.12 992 1477 993.119 1477 994.5C1477 995.881 1478.12 997 1479.5 997Z" fill="white"/>
<path d="M1490.5 1067C1491.88 1067 1493 1065.88 1493 1064.5C1493 1063.12 1491.88 1062 1490.5 1062C1489.12 1062 1488 1063.12 1488 1064.5C1488 1065.88 1489.12 1067 1490.5 1067Z" fill="white"/>
<path d="M1264.45 1028.01C1263.07 1028.03 1261.97 1029.17 1261.99 1030.55C1262.02 1031.93 1263.16 1033.03 1264.54 1033.01C1265.92 1032.98 1267.02 1031.84 1266.99 1030.46C1266.97 1029.08 1265.83 1027.98 1264.45 1028.01Z" fill="white"/>
<path d="M1192.55 1034.33C1191.17 1034.35 1190.07 1035.49 1190.1 1036.87C1190.12 1038.25 1191.26 1039.35 1192.64 1039.33C1194.02 1039.3 1195.12 1038.16 1195.1 1036.78C1195.07 1035.4 1193.93 1034.3 1192.55 1034.33Z" fill="white"/>
<path d="M1180.27 964.543C1178.89 964.568 1177.79 965.708 1177.81 967.088C1177.84 968.469 1178.98 969.567 1180.36 969.542C1181.74 969.517 1182.84 968.377 1182.81 966.996C1182.79 965.616 1181.65 964.517 1180.27 964.543Z" fill="white"/>
<path d="M485.579 1042.31C484.198 1042.33 483.1 1043.47 483.125 1044.85C483.15 1046.23 484.29 1047.33 485.67 1047.31C487.051 1047.28 488.149 1046.14 488.124 1044.76C488.099 1043.38 486.959 1042.28 485.579 1042.31Z" fill="white"/>
<path d="M410.72 1050.68C409.339 1050.71 408.241 1051.85 408.266 1053.23C408.291 1054.61 409.431 1055.71 410.812 1055.68C412.192 1055.66 413.291 1054.52 413.265 1053.14C413.24 1051.76 412.1 1050.66 410.72 1050.68Z" fill="white"/>
<path d="M540.037 1012.3C538.657 1012.33 537.558 1013.47 537.583 1014.85C537.609 1016.23 538.748 1017.33 540.129 1017.3C541.509 1017.28 542.608 1016.14 542.583 1014.76C542.557 1013.38 541.418 1012.28 540.037 1012.3Z" fill="white"/>
<path d="M830.869 1054.97C829.489 1055 828.39 1056.14 828.416 1057.52C828.441 1058.9 829.581 1060 830.961 1059.97C832.342 1059.95 833.44 1058.81 833.415 1057.42C833.389 1056.04 832.25 1054.95 830.869 1054.97Z" fill="white"/>
<path d="M401.4 978.842C400.019 978.867 398.921 980.007 398.946 981.387C398.971 982.767 400.111 983.866 401.491 983.841C402.872 983.815 403.97 982.676 403.945 981.295C403.92 979.915 402.78 978.816 401.4 978.842Z" fill="white"/>
<path d="M728.601 986.837C727.221 986.862 726.122 988.002 726.148 989.382C726.173 990.763 727.313 991.862 728.693 991.836C730.074 991.811 731.172 990.671 731.147 989.291C731.122 987.91 729.982 986.812 728.601 986.837Z" fill="white"/>
<path d="M673.51 1036.86C672.13 1036.88 671.031 1038.02 671.057 1039.4C671.082 1040.78 672.222 1041.88 673.602 1041.86C674.983 1041.83 676.081 1040.69 676.056 1039.31C676.03 1037.93 674.891 1036.83 673.51 1036.86Z" fill="white"/>
<path d="M627.902 949.679C626.522 949.704 625.423 950.844 625.449 952.225C625.474 953.605 626.614 954.704 627.994 954.678C629.375 954.653 630.473 953.513 630.448 952.133C630.423 950.752 629.283 949.654 627.902 949.679Z" fill="white"/>
<path d="M1054.02 1060.88C1052.63 1060.9 1051.54 1062.04 1051.56 1063.42C1051.59 1064.8 1052.73 1065.9 1054.11 1065.88C1055.49 1065.85 1056.59 1064.71 1056.56 1063.33C1056.54 1061.95 1055.4 1060.85 1054.02 1060.88Z" fill="white"/>
<path d="M1015.34 1024.58C1013.96 1024.61 1012.86 1025.75 1012.89 1027.13C1012.91 1028.51 1014.05 1029.6 1015.43 1029.58C1016.81 1029.55 1017.91 1028.41 1017.89 1027.03C1017.86 1025.65 1016.72 1024.55 1015.34 1024.58Z" fill="white"/>
<path d="M567.297 862.777C565.917 862.802 564.818 863.942 564.843 865.322C564.869 866.703 566.008 867.801 567.389 867.776C568.769 867.751 569.868 866.611 569.843 865.231C569.817 863.85 568.678 862.752 567.297 862.777Z" fill="white"/>
<path d="M487.769 889.241C486.389 889.266 485.29 890.406 485.316 891.787C485.341 893.167 486.481 894.266 487.861 894.24C489.242 894.215 490.34 893.075 490.315 891.695C490.29 890.314 489.15 889.216 487.769 889.241Z" fill="white"/>
<path d="M475.486 819.455C474.106 819.48 473.007 820.62 473.033 822C473.058 823.381 474.198 824.479 475.578 824.454C476.959 824.429 478.057 823.289 478.032 821.909C478.007 820.528 476.867 819.429 475.486 819.455Z" fill="white"/>
<path d="M1062.45 996.008C1061.07 996.034 1059.97 997.173 1059.99 998.554C1060.02 999.934 1061.16 1001.03 1062.54 1001.01C1063.92 1000.98 1065.02 999.842 1064.99 998.462C1064.97 997.081 1063.83 995.983 1062.45 996.008Z" fill="white"/>
<path d="M990.551 1002.33C989.171 1002.35 988.072 1003.49 988.098 1004.87C988.123 1006.25 989.263 1007.35 990.643 1007.33C992.024 1007.3 993.122 1006.16 993.097 1004.78C993.071 1003.4 991.932 1002.3 990.551 1002.33Z" fill="white"/>
<path d="M978.268 932.543C976.888 932.568 975.789 933.708 975.815 935.088C975.84 936.469 976.98 937.567 978.36 937.542C979.741 937.517 980.839 936.377 980.814 934.996C980.788 933.616 979.649 932.517 978.268 932.543Z" fill="white"/>
<path d="M283.579 1010.31C282.198 1010.33 281.1 1011.47 281.125 1012.85C281.15 1014.23 282.29 1015.33 283.67 1015.31C285.051 1015.28 286.149 1014.14 286.124 1012.76C286.099 1011.38 284.959 1010.28 283.579 1010.31Z" fill="white"/>
<path d="M208.72 1018.68C207.339 1018.71 206.241 1019.85 206.266 1021.23C206.291 1022.61 207.431 1023.71 208.811 1023.68C210.192 1023.66 211.29 1022.52 211.265 1021.14C211.24 1019.76 210.1 1018.66 208.72 1018.68Z" fill="white"/>
<path d="M338.037 980.302C336.657 980.328 335.558 981.467 335.583 982.848C335.609 984.228 336.748 985.327 338.129 985.302C339.509 985.276 340.608 984.137 340.583 982.756C340.557 981.376 339.418 980.277 338.037 980.302Z" fill="white"/>
<path d="M628.869 1022.97C627.489 1023 626.39 1024.14 626.416 1025.52C626.441 1026.9 627.581 1028 628.961 1027.97C630.342 1027.95 631.44 1026.81 631.415 1025.42C631.389 1024.04 630.25 1022.95 628.869 1022.97Z" fill="white"/>
<path d="M199.4 946.842C198.019 946.867 196.921 948.007 196.946 949.387C196.971 950.767 198.111 951.866 199.491 951.841C200.872 951.815 201.97 950.676 201.945 949.295C201.92 947.915 200.78 946.816 199.4 946.842Z" fill="white"/>
<path d="M526.601 954.837C525.221 954.862 524.122 956.002 524.148 957.382C524.173 958.763 525.313 959.862 526.693 959.836C528.074 959.811 529.172 958.671 529.147 957.291C529.122 955.91 527.982 954.812 526.601 954.837Z" fill="white"/>
<path d="M471.51 1004.86C470.13 1004.88 469.031 1006.02 469.057 1007.4C469.082 1008.78 470.222 1009.88 471.602 1009.86C472.983 1009.83 474.081 1008.69 474.056 1007.31C474.03 1005.93 472.891 1004.83 471.51 1004.86Z" fill="white"/>
<path d="M425.902 917.679C424.522 917.704 423.423 918.844 423.449 920.225C423.474 921.605 424.614 922.704 425.994 922.678C427.375 922.653 428.473 921.513 428.448 920.133C428.423 918.752 427.283 917.654 425.902 917.679Z" fill="white"/>
<path d="M852.015 1028.88C850.635 1028.9 849.536 1030.04 849.562 1031.42C849.587 1032.8 850.727 1033.9 852.107 1033.88C853.487 1033.85 854.586 1032.71 854.561 1031.33C854.535 1029.95 853.396 1028.85 852.015 1028.88Z" fill="white"/>
<path d="M780.119 1035.2C778.739 1035.22 777.64 1036.36 777.666 1037.74C777.691 1039.12 778.831 1040.22 780.211 1040.2C781.591 1040.17 782.69 1039.03 782.665 1037.65C782.639 1036.27 781.5 1035.17 780.119 1035.2Z" fill="white"/>
<path d="M813.342 992.58C811.962 992.605 810.863 993.745 810.889 995.126C810.914 996.506 812.054 997.605 813.434 997.579C814.815 997.554 815.913 996.414 815.888 995.034C815.863 993.653 814.723 992.555 813.342 992.58Z" fill="white"/>
<path d="M365.297 830.777C363.917 830.802 362.818 831.942 362.843 833.322C362.869 834.703 364.008 835.801 365.389 835.776C366.769 835.751 367.868 834.611 367.843 833.231C367.817 831.85 366.678 830.752 365.297 830.777Z" fill="white"/>
<path d="M285.769 857.241C284.389 857.266 283.29 858.406 283.316 859.787C283.341 861.167 284.481 862.266 285.861 862.24C287.242 862.215 288.34 861.075 288.315 859.695C288.29 858.314 287.15 857.216 285.769 857.241Z" fill="white"/>
<path d="M273.486 787.455C272.106 787.48 271.007 788.62 271.033 790C271.058 791.381 272.198 792.479 273.578 792.454C274.959 792.429 276.057 791.289 276.032 789.909C276.007 788.528 274.867 787.429 273.486 787.455Z" fill="white"/>
<path d="M824.448 940.008C823.067 940.034 821.969 941.173 821.994 942.554C822.019 943.934 823.159 945.033 824.539 945.007C825.92 944.982 827.019 943.842 826.993 942.462C826.968 941.081 825.828 939.983 824.448 940.008Z" fill="white"/>
<path d="M752.552 946.329C751.171 946.354 750.073 947.494 750.098 948.874C750.123 950.255 751.263 951.353 752.643 951.328C754.024 951.303 755.122 950.163 755.097 948.783C755.072 947.402 753.932 946.304 752.552 946.329Z" fill="white"/>
<path d="M740.269 876.543C738.888 876.568 737.789 877.708 737.815 879.088C737.84 880.469 738.98 881.567 740.36 881.542C741.741 881.517 742.839 880.377 742.814 878.996C742.789 877.616 741.649 876.517 740.269 876.543Z" fill="white"/>
<path d="M45.5788 954.307C44.1983 954.332 43.0998 955.472 43.1251 956.853C43.1505 958.233 44.2901 959.332 45.6706 959.306C47.0511 959.281 48.1496 958.141 48.1243 956.761C48.0989 955.38 46.9593 954.282 45.5788 954.307Z" fill="white"/>
<path d="M100.037 924.302C98.6568 924.328 97.5583 925.467 97.5836 926.848C97.609 928.228 98.7486 929.327 100.129 929.302C101.51 929.276 102.608 928.137 102.583 926.756C102.557 925.376 101.418 924.277 100.037 924.302Z" fill="white"/>
<path d="M390.87 966.971C389.489 966.997 388.391 968.136 388.416 969.517C388.441 970.897 389.581 971.996 390.961 971.97C392.342 971.945 393.44 970.805 393.415 969.425C393.39 968.045 392.25 966.946 390.87 966.971Z" fill="white"/>
<path d="M288.602 898.837C287.221 898.862 286.123 900.002 286.148 901.382C286.173 902.763 287.313 903.862 288.693 903.836C290.074 903.811 291.172 902.671 291.147 901.291C291.122 899.91 289.982 898.812 288.602 898.837Z" fill="white"/>
<path d="M233.511 948.857C232.13 948.882 231.032 950.022 231.057 951.402C231.082 952.783 232.222 953.881 233.602 953.856C234.983 953.83 236.081 952.691 236.056 951.31C236.031 949.93 234.891 948.831 233.511 948.857Z" fill="white"/>
<path d="M187.903 861.679C186.522 861.704 185.424 862.844 185.449 864.225C185.474 865.605 186.614 866.704 187.994 866.678C189.375 866.653 190.473 865.513 190.448 864.133C190.423 862.752 189.283 861.654 187.903 861.679Z" fill="white"/>
<path d="M614.015 972.876C612.635 972.902 611.536 974.041 611.562 975.422C611.587 976.802 612.727 977.901 614.107 977.875C615.488 977.85 616.586 976.71 616.561 975.33C616.536 973.95 615.396 972.851 614.015 972.876Z" fill="white"/>
<path d="M542.119 979.197C540.739 979.222 539.64 980.362 539.666 981.743C539.691 983.123 540.831 984.222 542.211 984.196C543.592 984.171 544.69 983.031 544.665 981.651C544.64 980.27 543.5 979.172 542.119 979.197Z" fill="white"/>
<path d="M575.343 936.58C573.962 936.605 572.864 937.745 572.889 939.126C572.914 940.506 574.054 941.605 575.435 941.579C576.815 941.554 577.914 940.414 577.888 939.034C577.863 937.653 576.723 936.555 575.343 936.58Z" fill="white"/>
<path d="M127.297 774.777C125.917 774.802 124.818 775.942 124.844 777.322C124.869 778.703 126.009 779.801 127.389 779.776C128.77 779.751 129.868 778.611 129.843 777.231C129.817 775.85 128.678 774.752 127.297 774.777Z" fill="white"/>
<path d="M47.7697 801.241C46.3892 801.266 45.2907 802.406 45.316 803.787C45.3414 805.167 46.481 806.266 47.8615 806.24C49.242 806.215 50.3405 805.075 50.3152 803.695C50.2899 802.314 49.1502 801.216 47.7697 801.241Z" fill="white"/>
<path d="M35.4868 731.455C34.1063 731.48 33.0077 732.62 33.0331 734C33.0584 735.381 34.1981 736.479 35.5785 736.454C36.959 736.429 38.0576 735.289 38.0322 733.909C38.0069 732.528 36.8672 731.429 35.4868 731.455Z" fill="white"/>
<path d="M1386.45 821.008C1385.07 821.034 1383.97 822.173 1383.99 823.554C1384.02 824.934 1385.16 826.033 1386.54 826.007C1387.92 825.982 1389.02 824.842 1388.99 823.462C1388.97 822.081 1387.83 820.983 1386.45 821.008Z" fill="white"/>
<path d="M1314.55 827.329C1313.17 827.354 1312.07 828.494 1312.1 829.874C1312.12 831.255 1313.26 832.353 1314.64 832.328C1316.02 832.303 1317.12 831.163 1317.1 829.783C1317.07 828.402 1315.93 827.304 1314.55 827.329Z" fill="white"/>
<path d="M1302.27 757.543C1300.89 757.568 1299.79 758.708 1299.81 760.088C1299.84 761.469 1300.98 762.567 1302.36 762.542C1303.74 762.517 1304.84 761.377 1304.81 759.996C1304.79 758.616 1303.65 757.517 1302.27 757.543Z" fill="white"/>
<path d="M607.579 835.307C606.198 835.332 605.1 836.472 605.125 837.853C605.15 839.233 606.29 840.332 607.67 840.306C609.051 840.281 610.149 839.141 610.124 837.761C610.099 836.38 608.959 835.282 607.579 835.307Z" fill="white"/>
<path d="M532.72 843.683C531.339 843.708 530.241 844.848 530.266 846.228C530.291 847.609 531.431 848.707 532.812 848.682C534.192 848.656 535.291 847.517 535.265 846.136C535.24 844.756 534.1 843.657 532.72 843.683Z" fill="white"/>
<path d="M662.037 805.302C660.657 805.328 659.558 806.467 659.583 807.848C659.609 809.228 660.748 810.327 662.129 810.302C663.509 810.276 664.608 809.137 664.583 807.756C664.557 806.376 663.418 805.277 662.037 805.302Z" fill="white"/>
<path d="M952.869 847.971C951.489 847.997 950.39 849.136 950.416 850.517C950.441 851.897 951.581 852.996 952.961 852.97C954.342 852.945 955.44 851.805 955.415 850.425C955.389 849.045 954.25 847.946 952.869 847.971Z" fill="white"/>
<path d="M523.4 771.842C522.019 771.867 520.921 773.007 520.946 774.387C520.971 775.767 522.111 776.866 523.491 776.841C524.872 776.815 525.97 775.676 525.945 774.295C525.92 772.915 524.78 771.816 523.4 771.842Z" fill="white"/>
<path d="M850.601 779.837C849.221 779.862 848.122 781.002 848.148 782.382C848.173 783.763 849.313 784.862 850.693 784.836C852.074 784.811 853.172 783.671 853.147 782.291C853.122 780.91 851.982 779.812 850.601 779.837Z" fill="white"/>
<path d="M795.51 829.857C794.13 829.882 793.031 831.022 793.057 832.402C793.082 833.783 794.222 834.881 795.602 834.856C796.983 834.83 798.081 833.691 798.056 832.31C798.03 830.93 796.891 829.831 795.51 829.857Z" fill="white"/>
<path d="M749.902 742.679C748.522 742.704 747.423 743.844 747.449 745.225C747.474 746.605 748.614 747.704 749.994 747.678C751.375 747.653 752.473 746.513 752.448 745.133C752.423 743.752 751.283 742.654 749.902 742.679Z" fill="white"/>
<path d="M1176.02 853.876C1174.63 853.902 1173.54 855.041 1173.56 856.422C1173.59 857.802 1174.73 858.901 1176.11 858.875C1177.49 858.85 1178.59 857.71 1178.56 856.33C1178.54 854.95 1177.4 853.851 1176.02 853.876Z" fill="white"/>
<path d="M1104.12 860.197C1102.74 860.222 1101.64 861.362 1101.67 862.743C1101.69 864.123 1102.83 865.222 1104.21 865.196C1105.59 865.171 1106.69 864.031 1106.66 862.651C1106.64 861.27 1105.5 860.172 1104.12 860.197Z" fill="white"/>
<path d="M1137.34 817.58C1135.96 817.605 1134.86 818.745 1134.89 820.126C1134.91 821.506 1136.05 822.605 1137.43 822.579C1138.81 822.554 1139.91 821.414 1139.89 820.034C1139.86 818.653 1138.72 817.555 1137.34 817.58Z" fill="white"/>
<path d="M689.297 655.777C687.917 655.802 686.818 656.942 686.843 658.322C686.869 659.703 688.008 660.801 689.389 660.776C690.769 660.751 691.868 659.611 691.843 658.231C691.817 656.85 690.678 655.752 689.297 655.777Z" fill="white"/>
<path d="M609.769 682.241C608.389 682.266 607.29 683.406 607.316 684.787C607.341 686.167 608.481 687.266 609.861 687.24C611.242 687.215 612.34 686.075 612.315 684.695C612.29 683.314 611.15 682.216 609.769 682.241Z" fill="white"/>
<path d="M597.486 612.455C596.106 612.48 595.007 613.62 595.033 615C595.058 616.381 596.198 617.479 597.578 617.454C598.959 617.429 600.057 616.289 600.032 614.909C600.007 613.528 598.867 612.429 597.486 612.455Z" fill="white"/>
<path d="M1107.58 769.307C1106.2 769.332 1105.1 770.472 1105.12 771.853C1105.15 773.233 1106.29 774.332 1107.67 774.306C1109.05 774.281 1110.15 773.141 1110.12 771.761C1110.1 770.38 1108.96 769.282 1107.58 769.307Z" fill="white"/>
<path d="M1032.72 777.683C1031.34 777.708 1030.24 778.848 1030.27 780.228C1030.29 781.609 1031.43 782.707 1032.81 782.682C1034.19 782.656 1035.29 781.517 1035.27 780.136C1035.24 778.756 1034.1 777.657 1032.72 777.683Z" fill="white"/>
<path d="M1162.04 739.302C1160.66 739.328 1159.56 740.467 1159.58 741.848C1159.61 743.228 1160.75 744.327 1162.13 744.302C1163.51 744.276 1164.61 743.137 1164.58 741.756C1164.56 740.376 1163.42 739.277 1162.04 739.302Z" fill="white"/>
<path d="M1452.87 781.971C1451.49 781.997 1450.39 783.136 1450.42 784.517C1450.44 785.897 1451.58 786.996 1452.96 786.97C1454.34 786.945 1455.44 785.805 1455.41 784.425C1455.39 783.045 1454.25 781.946 1452.87 781.971Z" fill="white"/>
<path d="M1023.4 705.842C1022.02 705.867 1020.92 707.007 1020.95 708.387C1020.97 709.767 1022.11 710.866 1023.49 710.841C1024.87 710.815 1025.97 709.676 1025.95 708.295C1025.92 706.915 1024.78 705.816 1023.4 705.842Z" fill="white"/>
<path d="M1350.6 713.837C1349.22 713.862 1348.12 715.002 1348.15 716.382C1348.17 717.763 1349.31 718.862 1350.69 718.836C1352.07 718.811 1353.17 717.671 1353.15 716.291C1353.12 714.91 1351.98 713.812 1350.6 713.837Z" fill="white"/>
<path d="M1295.51 763.857C1294.13 763.882 1293.03 765.022 1293.06 766.402C1293.08 767.783 1294.22 768.881 1295.6 768.856C1296.98 768.83 1298.08 767.691 1298.06 766.31C1298.03 764.93 1296.89 763.831 1295.51 763.857Z" fill="white"/>
<path d="M1249.9 676.679C1248.52 676.704 1247.42 677.844 1247.45 679.225C1247.47 680.605 1248.61 681.704 1249.99 681.678C1251.37 681.653 1252.47 680.513 1252.45 679.133C1252.42 677.752 1251.28 676.654 1249.9 676.679Z" fill="white"/>
<path d="M1189.3 589.777C1187.92 589.802 1186.82 590.942 1186.84 592.322C1186.87 593.703 1188.01 594.801 1189.39 594.776C1190.77 594.751 1191.87 593.611 1191.84 592.231C1191.82 590.85 1190.68 589.752 1189.3 589.777Z" fill="white"/>
<path d="M1109.77 616.241C1108.39 616.266 1107.29 617.406 1107.32 618.787C1107.34 620.167 1108.48 621.266 1109.86 621.24C1111.24 621.215 1112.34 620.075 1112.31 618.695C1112.29 617.314 1111.15 616.216 1109.77 616.241Z" fill="white"/>
<path d="M1097.49 546.455C1096.11 546.48 1095.01 547.62 1095.03 549C1095.06 550.381 1096.2 551.479 1097.58 551.454C1098.96 551.429 1100.06 550.289 1100.03 548.909C1100.01 547.528 1098.87 546.429 1097.49 546.455Z" fill="white"/>
<path d="M1381.4 1034.84C1380.02 1034.87 1378.92 1036.01 1378.95 1037.39C1378.97 1038.77 1380.11 1039.87 1381.49 1039.84C1382.87 1039.82 1383.97 1038.68 1383.95 1037.3C1383.92 1035.91 1382.78 1034.82 1381.4 1034.84Z" fill="white"/>
<path d="M1547.3 918.777C1545.92 918.802 1544.82 919.942 1544.84 921.322C1544.87 922.703 1546.01 923.801 1547.39 923.776C1548.77 923.751 1549.87 922.611 1549.84 921.231C1549.82 919.85 1548.68 918.752 1547.3 918.777Z" fill="white"/>
<path d="M1467.77 945.241C1466.39 945.266 1465.29 946.406 1465.32 947.787C1465.34 949.167 1466.48 950.266 1467.86 950.24C1469.24 950.215 1470.34 949.075 1470.32 947.695C1470.29 946.314 1469.15 945.216 1467.77 945.241Z" fill="white"/>
<path d="M1455.49 875.455C1454.11 875.48 1453.01 876.62 1453.03 878C1453.06 879.381 1454.2 880.479 1455.58 880.454C1456.96 880.429 1458.06 879.289 1458.03 877.909C1458.01 876.528 1456.87 875.429 1455.49 875.455Z" fill="white"/>
</g>
<defs>
<clipPath id="clip0_1_58">
<rect width="1600" height="1067" fill="white"/>
</clipPath>
</defs>
</svg>
