<svg width="1600" height="1067" viewBox="0 0 1600 1067" fill="none" xmlns="http://www.w3.org/2000/svg">
<g clip-path="url(#clip0_1_58)">
<g filter="url(#filter0_f_1_58)">
<ellipse cx="245.221" cy="311.5" rx="426.635" ry="303.43" transform="rotate(1.09119 245.221 311.5)" fill="#608DEE" fill-opacity="0.2"/>
</g>
<g filter="url(#filter1_f_1_58)">
<ellipse cx="1121.89" cy="220.104" rx="321" ry="50" transform="rotate(1.09119 1121.89 220.104)" fill="#EC4899" fill-opacity="0.2"/>
</g>
<g filter="url(#filter2_f_1_58)">
<ellipse cx="443.525" cy="158.582" rx="443.525" ry="158.582" transform="matrix(0.999819 0.0190437 0.0190437 -0.999819 51 1050.11)" fill="#9333EA" fill-opacity="0.2"/>
</g>
<path d="M57.5 50C66.5 278.167 124.2 709.5 283 609.5C481.5 484.5 568 34 674 161.5C758.8 263.5 834.333 821.333 861.5 1087.5" stroke="#EC4899" stroke-opacity="0.6"/>
<path d="M264 50C273 278.167 330.7 709.5 489.5 609.5C688 484.5 774.5 34 880.5 161.5C965.3 263.5 1040.83 821.333 1068 1087.5" stroke="#9333EA" stroke-opacity="0.6"/>
<path d="M459 50C468 278.167 525.7 709.5 684.5 609.5C883 484.5 969.5 34 1075.5 161.5C1160.3 263.5 1235.83 821.333 1263 1087.5" stroke="#2563EB" stroke-opacity="0.6"/>
</g>
<defs>
<filter id="filter0_f_1_58" x="-481.377" y="-291.986" width="1453.2" height="1206.97" filterUnits="userSpaceOnUse" color-interpolation-filters="sRGB">
<feFlood flood-opacity="0" result="BackgroundImageFix"/>
<feBlend mode="normal" in="SourceGraphic" in2="BackgroundImageFix" result="shape"/>
<feGaussianBlur stdDeviation="150" result="effect1_foregroundBlur_1_58"/>
</filter>
<filter id="filter1_f_1_58" x="500.951" y="-130.264" width="1241.89" height="700.737" filterUnits="userSpaceOnUse" color-interpolation-filters="sRGB">
<feFlood flood-opacity="0" result="BackgroundImageFix"/>
<feBlend mode="normal" in="SourceGraphic" in2="BackgroundImageFix" result="shape"/>
<feGaussianBlur stdDeviation="150" result="effect1_foregroundBlur_1_58"/>
</filter>
<filter id="filter2_f_1_58" x="-245.99" y="441.218" width="1486.91" height="917.565" filterUnits="userSpaceOnUse" color-interpolation-filters="sRGB">
<feFlood flood-opacity="0" result="BackgroundImageFix"/>
<feBlend mode="normal" in="SourceGraphic" in2="BackgroundImageFix" result="shape"/>
<feGaussianBlur stdDeviation="150" result="effect1_foregroundBlur_1_58"/>
</filter>
<clipPath id="clip0_1_58">
<rect width="1600" height="1067" fill="white"/>
</clipPath>
</defs>
</svg>
